<svg version="1" xmlns="http://www.w3.org/2000/svg" width="716" height="716" viewBox="0 0 537.000000 537.000000"><path d="M.1 143.7C.1 262.9.4 287 1.5 284.5c1.1-2.6 1.3-2.7 1.9-1 .3 1.2.4.9.2-.8-.2-1.5.1-2.7.7-2.7.5 0 .7-1.1.5-2.4-.4-1.9-.1-2.3 1.6-2 1.2.3 1.5.2.8-.2-1.9-.9-1.4-2.6.7-1.9 1.2.4 2.9-.5 5.1-2.5 1.8-1.6 4.1-3 5.1-3s1.9-.5 1.9-1c0-.6.4-1 1-1 1.7 0 10-6.4 10-7.7 0-.7.3-1.2.7-1.1 1.4.2 4.3-1.4 4.3-2.4 0-.5 1.6-2.5 3.5-4.4 1.9-1.8 3.5-3.2 3.5-3 0 .2 1.6-1.2 3.5-3.1 1.9-1.9 3.5-3.7 3.5-3.9 0-.2.8-1.3 1.8-2.3 3.9-4.4 4.1-5.1 4.3-14.6 0-2.2.5-5 1.1-6.2.8-1.7.8-2.9 0-4.7-.8-1.9-.8-2.6.1-3 .9-.3.9-.5 0-.5-3.2-.2-.8-4.7 6.2-11.7 7-7 9.8-10.6 10-12.9.1-2.4 1.7-5.5 2.6-5 .7.5 1.3-.9.7-1.8-.1-.1.5-1.3 1.2-2.7 2.1-3.9 2.3-4.7 2.6-17.5.2-9-.1-12.6-1.2-14.2-1.9-2.9-1.8-8.3.2-11.1.8-1.2 1.1-2.2.6-2.2-.5 0-1.5-1.2-2.1-2.8-.6-1.5-2.7-4.4-4.6-6.5-2-2.2-3.2-4.3-2.9-5.2.4-.8 1-1.3 1.4-1 1.4.9 4-.6 3.3-1.9-.4-.7-.1-.7.9.1.8.7 1.8 1 2.1.7.4-.4 1.7 0 2.9.8 1.3.8 4.1 1.5 6.3 1.7 3.8.2 3.9.1 2-1.4-1.1-.9-1.5-1.4-.8-1.1.6.4 1.4.2 1.8-.4.3-.5 1.4-1 2.3-1 .9 0 2.8-1.4 4.1-3 1.3-1.7 3.1-3 4-3 1.4 0 1.4-.2.1-1-1.1-.7-.5-1 2.4-1 2.6 0 3.7-.4 3.3-1.3-.2-.7.4-1.3 1.7-1.4 5.3-.4 7.6-.9 7.6-1.5 0-.4.9-.5 2.1-.3 1.4.3 2.3-.2 2.6-1.5.3-1.1 1.1-1.6 1.9-1.3.8.3 1.4-.1 1.4-.8 0-1.1.2-1.1.8-.2 1.1 1.7 43.2 2.3 43.2.7 0-1.2 3.1-2.4 6.6-2.4 1.1 0 4.5-2.3 7.5-5.1 2.9-2.8 6.6-5.5 8.1-6.1 1.5-.5 3-1.8 3.3-2.9.4-1 .9-1.8 1.3-1.8 1.8.3 3.2-.2 3-1-.2-.5.6-1.7 1.8-2.7 1.1-1.1 2.9-3.1 3.8-4.7 1-1.5 2.6-2.7 3.5-2.7.9 0 2.9-1.4 4.4-3 1.6-1.7 3.7-3 4.7-3s2.2-.5 2.5-1c.3-.6 1.4-1 2.4-1s2.6-1.2 3.5-2.6c1-1.4 2.2-2.4 2.9-2.1 1.7.5 4.7-5.7 4.7-9.8 0-3 .3-3.5 2.4-3.5 3.2 0 5.7 1 5.1 2.1-.3.4.3 1.3 1.4 1.9 1.6.8 2.2.6 3.1-1 .6-1.1 1.5-1.8 2.1-1.5.5.4.9-.1.9-.9s.6-1.9 1.3-2.3c.7-.4 1.8-1.9 2.5-3.3 2.7-5.3 4-7.2 6.1-8.6 1.1-.8 2.1-2.2 2.1-3 0-.8.6-1.4 1.3-1.4.8 0 .7-.4-.3-1-1.2-.8-1.1-1 .6-1 1.2 0 2.5-.7 2.8-1.6.5-1.4.4-1.5-.9-.4-.9.8-1.5.8-1.5.2 0-1 1.8-2.6 3-2.7.3 0 1.4-.6 2.5-1.3 1.9-1.2 1.9-1.3-.2-.7-3.4.9-1.9-2 1.8-3.5 1.6-.7 2.6-1.6 2.3-2.1-.3-.5 0-.9.7-.9.6 0 1.8-.8 2.6-1.8.8-.9 1.2-1.1.8-.5-.3.7-.1 1.3.4 1.3.6 0 1.1-.5 1.1-1 0-.6 1.6-1 3.5-1 3.6 0 8.1-1.6 10.3-3.7C290.9.2 262.8 0 145.6 0H0l.1 143.7zM307 .9c0 .5 1.1 1.2 2.5 1.5 1.4.4 2.5 1.1 2.5 1.6 0 .6 1 1 2.3 1.1 1.2 0 1.6.3 1 .6-2.4.9-1.3 2 1.5 1.5 2.6-.5 8.2-4.9 8.2-6.4 0-.5-4-.8-9-.8-4.9 0-9 .4-9 .9zM369.7 2.1c.3 1.1.9 1.6 1.2 1.1.7-1.2 6.4-1.1 7.3.2.3.5 2 .9 3.8.9 1.7 0 2.7.3 2.3.6-.4.3-.9 1.5-1.1 2.6-.1 1.1-.5 4.2-.9 6.9-.5 3.9-.4 4.8.7 4.1 1-.6 1.2-.4.8.7-.4.8.1 2.2 1 3 2.2 1.9 5.2 5.7 5.2 6.3 0 .3 2 2.7 4.5 5.3 2.5 2.6 4.5 4.1 4.5 3.4 0-.6.6-1.2 1.4-1.2.9 0 1.7 1.7 2.2 4.7.4 2.7.7 5.1.6 5.4 0 .3 1 1.2 2.3 1.9 1.4.7 2.5 1.9 2.5 2.5 0 .7.7 1.8 1.5 2.5s1.2 1.6.9 2.1c-.3.5 0 .9.6.9 1.8 0 7 4.2 6.4 5.2-.3.5.2 1.8 1.2 2.9 1.5 1.7 1.6 2.2.5 2.9-.8.4-1.1 1.5-.8 2.3.3.8.3 1.8-.1 2.1-.3.4-.7 1.2-.9 1.9-.1.7-.7 3.2-1.3 5.7-1.7 6.9-1.8 16.9-.1 17.9.7.5 1 1.4.7 2-.5.7.5 1.1 2.9 1.1 3.4 0 7.4 1.4 8.5 3 1.1 1.5 7.6 4.4 9.3 4.1 1-.1 2.7.5 3.7 1.4 1.1 1 2.4 1.4 3.1.9.8-.4 1-.3.5.4-1.5 2.4 4.9 4.2 13.8 3.8 4.7-.2 8.6 0 8.6.5s2.4.9 5.3.9c2.8 0 6.5.7 8.1 1.5 2.7 1.4 3.1 1.4 5.1-.5l2.2-2 1.2 2.4c.9 1.7 1.9 2.2 3.4 1.8 1.3-.3 1.8-.1 1.3.6-.3.6.7 1.9 2.4 2.8 1.6 1 3 2.1 3 2.4 0 .3 1.8 1.4 4 2.4s4 2.3 4 2.9c0 .8.4.7.9-.2.8-1.2 1.3-1.2 3.6.3 1.5 1 2.9 1.5 3.2 1.2.3-.3 1.4-.1 2.3.4 1.5.8 1.6 1.6 1 4.4-.4 1.8-1 3.9-1.4 4.5-.4.6-.1 1.1.8 1.1 1 0 1.6.9 1.6 2.4 0 1.3.6 2.7 1.3 2.9.7.3.5.6-.5.6-1.8.1-2.5 2.7-.9 3.3 1.3.5 2.4 4.8 1.2 4.8-.9 0-.7 14 .3 18.5.2 1.1.5 2.6.5 3.3.1.7 1.2 1.8 2.6 2.4 1.6.7 2.5 1.9 2.5 3.4 0 1.3 1.1 3.5 2.5 5s2.5 2.3 2.5 1.8c0-.5 1.1.4 2.5 1.9s2.8 2.7 3 2.7c.3 0 .5-43.7.5-97V0H369.2l.5 2.1z"/><path d="M313.1 22.6l-13.2 8.7 4.3 1.9c2.3 1 5.2 1.7 6.5 1.3 2-.5 2.1-.3.9 1.7-.7 1.3-9.9 10.8-20.4 21.3C273.5 75 268.8 81.1 277 76.2c2.2-1.4 2.7-2.1 1.7-2.4-1.3-.3-1.3-.5-.1-1.6s1.4-1 1.4.4c0 1 .5 1.4 1.5 1 .8-.3 1.5-.3 1.5-.1 0 .8-3.9 4.5-4.6 4.4-.3 0-.8.2-1.2.5-.3.3 0 .6.6.6s1.1 1.7 1 4c0 2.2-.4 4-.9 4-1.2 0-1.1 5.7.1 6.5 1.5.9 1.2 2.8-.6 5.1-1.5 1.8-1.5 1.8-1 0 .6-1.7.4-1.7-1-.5-.9.8-2.8 1.2-4.2 1-2-.2-2.4.1-1.9 1.4.5 1.1.3 1.4-.5.9-.7-.5-3-.9-5.1-1-6.1-.4-6.6-.8-6.2-5.4.2-2.7 0-3.8-.7-3.4-.6.4-.9.2-.7-.5.5-1.3 51.1-52.4 52.1-52.5.3-.1.9-.4 1.2-.9.3-.4.3-.5 0-.3-.3.3-3.1-.6-6.2-2l-5.5-2.4-8.1 4.7c-6.7 3.9-11.9 8.6-29.3 26.1-11.7 11.8-21.1 21.8-20.8 22.2.2.4-.6 1.7-2 3-1.3 1.2-2.1 2.8-1.9 3.5.3.7.1 1.5-.4 1.9-1.8 1.1-.5-3.5 1.8-6.1 1.4-1.6-.1-.3-3.3 2.7-3.1 3-5.7 5.6-5.7 5.9 0 .2 1.1-.6 2.5-1.9 4.7-4.4 2.5-1-2.9 4.5-5.2 5.3-8.3 7.4-5.5 3.7 1.1-1.4 1-1.4-.8.2-1.3 1-2 2.2-1.8 2.6.7 1.1-2 3.1-3 2.2-.5-.4-.5-.1-.1.6.5.8-.1 2.3-1.5 3.8-3.1 3.3-4.8 3-1.8-.4 2.4-2.7 2.3-2.7-.8.2-1.8 1.6-3 3.4-2.6 3.9.3.6.1.7-.4.4-1.1-.7-3.1 1-3.2 2.8-.1.5-.5 1-1.1 1-.5 0-3.2 2.2-5.9 4.8-3.3 3.3-5.2 4.4-5.7 3.6-.4-.8-.3-.9.4-.5s1.2.1 1.2-.6c0-.8 1.6-2.9 3.5-4.8 1.9-1.8 3.2-3.7 2.9-4.2-.3-.5 0-.7.8-.6.7.2 1.2-.3 1-1-.1-.8.2-1.1.7-.8 1 .7 3.4-1.8 2.5-2.6-1-1 13.5-15 14.7-14.2.8.4.9.3.5-.5-.4-.6-.1-1.8.8-2.6 1.8-1.8 3-2 2-.3-.4.7 1.1-.5 3.4-2.6s4-4.4 3.9-5c-.1-.5.5-1 1.3-1.1.8 0 1.5-.7 1.5-1.5s.5-1.5 1.1-1.5c1.4 0 12.5-10.6 31.2-29.8l5.7-5.9-13.5 8.3c-20.6 12.5-82.4 51.4-92.5 58.2-5 3.3-12.4 9.6-16.7 14.1-4.2 4.5-7.7 7.7-7.8 7.3 0-.5 2.4-3.3 5.3-6.4 2.8-3.1 4.8-5.4 4.2-5.1-.5.3-5 3.1-9.9 6.1-8.7 5.4-9 5.7-15.6 16.3-3.7 6-22.3 35.9-41.5 66.4-19.1 30.5-39.8 63.6-46 73.5-6.2 9.9-14.7 23.4-18.9 30.1-4.2 6.7-7.6 12.6-7.6 13.2 0 .5 4.4 5 9.7 9.9 5.4 4.8 20.3 18.5 33.2 30.3 12.9 11.8 34.3 31.4 47.6 43.5 13.3 12.1 46.5 42.4 73.9 67.3l49.8 45.4 7.1-2.8 7.2-2.8-.4-8c-.3-5.9-.6-7.1-1-4.6l-.6 3.4-3.5-3.2c-6.6-5.9-8.3-7.2-9.7-7.2-.8 0-1.1-.5-.7-1.1.4-.7-.1-.7-1.6.1-2 1.1-2.6.8-5.9-2.4-2.5-2.6-3-3.5-1.6-3 1.1.4 1.7.4 1.3 0-.3-.4-1.3-.9-2.1-1-1.7-.2-18.7-14.6-22.7-19.2-1.6-1.9-1.8-2.3-.5-1.3 2.1 1.7 7.5 3.1 7.5 2 0-.4-1.8-2-4-3.7-4.2-3.1-4.9-4.4-2.4-4.4.8 0 1.3.4 1 .9-.3.5 1.4 2.5 3.9 4.5 2.5 2.1 4.3 3.1 4 2.4-.4-.9.3-1.4 1.7-1.5 1.8-.2 2 0 .8.7-2 1.3.2 1.3 3.5 0 2-.8 2.7-.7 3.1.5.5 1.2 1 1.2 2.7.3 1.2-.7 3.1-1.1 4.2-.9 2 .3 2 .3.1-1.8-1-1.1-2.4-1.8-3-1.4-.6.3-.8.2-.3-.2.4-.5-1.2-2.9-3.5-5.4l-4.3-4.5 5 4.3c2.8 2.4 6.2 4.9 7.6 5.5 1.4.6 2.6 1.5 2.6 2.1 0 .5.6 1 1.4 1.1.9.1 1-.1.1-.3-1.5-.6-.6-2.3 1.3-2.3.7 0 2.1.7 2.9 1.6 1 .9 1.6 1.1 1.6.4 0-.6.8-.9 1.8-.6 2.5.8 6.4-2.6 5.6-4.8-.3-.9-.3-1.6 0-1.6.4 0 1.1 1 1.6 2.2.6 1.7.9.2.8-5.2 0-8.8-.9-12.6-2.9-12.2-.8.2-1.1 0-.7-.4.4-.4.2-1.4-.4-2.2-1-1.2-.9-1.7 1-3 2-1.3 2.2-2.2 2.1-10.1-.1-4.7-.4-7.5-.7-6.1-.3 2-.6 2.1-1.1.8-.5-1.4-1-1.5-4.4-.3-4.5 1.5-4.8 1.1-.6-1l3.1-1.6-2.1-1.8c-1.2-1-2.1-2.3-2.1-3 0-.6-.7-1.1-1.6-1.1-.8 0-1.3-.3-1.1-.8.3-.4-1.1-.8-3.1-1-1.9-.1-4.2-.8-5-1.4-3.6-3-5.6-3.5-9.6-2.1-3.7 1.3-4.1 1.2-6-.9l-2.1-2.2 2.1 1.7c1.9 1.6 2.3 1.6 5.4 0 2.3-1.1 2.9-1.8 2-2.1-.8-.3-3.2-1.8-5.3-3.3-2.1-1.5-5.1-3.1-6.8-3.4-1.6-.4-2.9-1.3-2.9-2.1 0-.9-.5-1.2-1-.9-.6.3-1-.1-1-.9 0-1-.9-1.6-2.2-1.6-1.9 0-1.4.9 3.7 6.2 6.5 6.8 4 4.7-11.9-10-5.3-5-9.5-8.2-10.6-8-.9.2-2.4-.3-3.2-1-1.3-1-2.4-.9-6.2.7-5.5 2.4-6.1 1.9-.8-.8l3.7-2-3-.1c-2.4-.1-2.6-.3-1.1-.9 1.3-.5-1.1-1.5-8.6-3.4-5.7-1.5-11.2-2.5-12.1-2.1-.9.3-1.7.2-1.7-.4 0-1.4-3.2-2.5-3.9-1.4-.3.5-1.7 1.3-3.1 1.7l-2.5.8 2-2.3 2-2.3-2.8.7c-1.7.4-2.6.3-2.3-.2.7-1.1-5.2-2.5-6.7-1.5-.5.3-.7.1-.4-.4.8-1.3-5.8-2.7-7.5-1.7-.7.4-.8.3-.4-.4s.1-1.2-.8-1.2c-2.1 0-2 2.6 0 3.4.9.4 1.4.9 1 1.3-.3.4-1.9-.6-3.5-2.1-1.6-1.6-3.4-2.5-4.1-2.1-.6.4-1.7.1-2.5-.5-.9-.7-2.6-1-4.2-.5-2.7.6-2.7.6-.8-.9 2.4-1.7 3.1-1.4-12-5.6-11.8-3.3-15.8-3.8-19-2.5-1.9.7-1.9.7-.1-.7 1.8-1.4 1.6-1.6-3-2.8-2.7-.7-5.3-1.4-5.9-1.5-.5-.2-3.8-1-7.2-1.9-4.6-1.2-6.8-1.4-8.9-.6-2.5 1-3.1.7-5.8-2l-3.1-3.1 2.1-1.7 2.1-1.7-1.9-13c-1.6-11.4-1.7-16.8-.3-15.4.2.3 1.1 6.1 2 12.9 2 15.7 2.3 17 3.8 17.6.7.2 7.1-2.7 14.3-6.5l13.2-6.8 6.8 6.4c11 10.3 10.3 10.1 17.9 6.4 5.6-2.8 8.2-5.1 5.7-5.1-.4 0-1.3-1-2.1-2.2l-1.4-2.3 2.3 2 2.3 2-.7-6.4c-.3-3.5-.6-7.6-.6-9 0-1.5-1.2-4-2.9-5.8-2.1-2.3-2.6-3.5-1.8-4.1 1.8-1.4 4.9-2.3 4.2-1.3-.3.5 0 1.3.5 1.6.7.5.5 1.1-.5 1.9-1.5 1.1-1.5 1.3-.2 2.5 1.2 1 2.1 1 3.8 0 2.2-1.1 2.2-1.2.4-2.5-1-.8-1.6-1.6-1.3-1.9.2-.3 1.3.4 2.3 1.5 1.8 2 1.8 2.1-.4 3.7-2.2 1.5-2.3 2-1.6 9.6.8 10 1.2 10.9 3.9 10.2 2-.6 2-.6.1.6-1.1.7-2.2 1.3-2.4 1.5-.6.5 7.2 6.9 8.2 6.6.4-.1.6.1.3.6s.7 2 2.2 3.3c5.7 5.2 5.6 5.2 11.3 2.5 6.9-3.4 7.6-2.5.8 1l-5.3 2.6 2.2 1.8c1.2 1 2.2 2.3 2.2 2.9 0 .6.4 1.1.8 1.1 1.2 0 8.7 7.2 8.5 8.1-.1.4 1.4.6 3.4.4 2.2-.2 3.1 0 2.3.5-.9.6 0 1.2 3.1 2 2.4.6 7.6 2 11.5 3.1 7.8 2.1 9.6 2.3 7.4.9-1.3-.8-1.3-1-.1-1 1 0 .2-1.4-2-3.7-2.7-2.9-2.3-2.7 2 1 2.9 2.6 5.8 4.4 6.3 4.1.5-.4 2-.1 3.3.6 2.4 1.3 3 1.1 22.3-8 8.6-4.1 9.2-3.7.9.6-3.7 1.9-6.5 3.9-6.2 4.4.4.6 1.2.4 2.1-.5.9-.8 1.9-1.3 2.4-1 .5.3 1.1.1 1.5-.5.4-.6 1.1-.7 1.7-.4.6.4.5 1-.3 1.6-.9.5-.3.6 1.6.2 1.7-.4 3.2-1 3.5-1.3.9-1.1 5.8-.5 7.7.9 1 .8-.1-.6-2.4-3.1-4.7-4.9-5-5.6-2.8-5.6.8 0 1.2.3 1 .7-.2.4.9 2 2.5 3.5 1.7 1.6 3 2.5 3 1.9 0-.5.5-.2 1 .6.8 1.2 1 1.2 1 .1 0-1 .8-1.2 3-.8 1.6.4 3.2.2 3.6-.4.4-.7 1-.6 1.9.1.9.7 2.7.8 5.2.4 2.1-.5 4.2-.7 4.6-.6.5.1.6-.2.2-.8-.3-.6-1.2-.7-1.8-.4-.7.4-.9.3-.4-.1.4-.5-.7-2.5-2.5-4.4-3.8-4-1.2-2.4 4.6 2.8 2.1 2 3.5 3 3.1 2.2-.6-1.1-.4-1.3.8-.8 1.5.5 1.6-.3 1-7.6-.5-6.6-1.1-8.6-2.9-10.6l-2.4-2.5 2.3-1.3c3.2-1.8 4.1-1.6 7.1 1.3 1.8 1.9 2.3 3 1.6 3.9-.5.6-.7 1.4-.4 1.7.3.3-.1.5-.8.4-.7 0-1.4.2-1.5.6-.5 1.5-.1 18.3.3 17.1.3-.7 1.1-1 1.8-.7.7.3 2.5 0 4-.6 3.7-1.4 2.4.4-1.4 2s-3.8 2.6.2 6.7c2.8 2.9 3 3.5 1.8 4.4-1.2.8-1.1.9.6.5 1.4-.4 2.9.3 4.9 2.4 2.8 3 3 4.4.2 1.5-2.8-2.7-4.1-2.2-4.1 1.6l-.1 3.6 3.9-1.3c2.2-.8 4.1-1.2 4.3-1 .3.2-.6.7-1.9 1.1-1.3.4-4.2 1.8-6.6 3.2-3.2 1.8-4.1 2.8-3.3 3.7.7.8.7 1.6.1 2.2-.6.6.8 2.7 4 5.9 2.8 2.7 5 5.4 5 5.9s-1.3-.3-2.9-1.8c-2.7-2.6-2.9-2.6-2.4-.7.3 1.2.1 2.1-.6 2.1-.6 0-1.1.7-1.1 1.6 0 .8-.5 1.2-1.1.8-.7-.4-1 .1-.7 1.2.2 1.4 1.1 1.8 2.8 1.6 2.4-.3 2.4-.2.6 1.3-1.1.8-2.5 1.5-3 1.5-.6 0-2 .8-3.1 1.7-2 1.5-2 1.6 0 .9 1.1-.4 1.6-.4 1.2 0-.4.4.7 2.3 2.5 4.2 2.5 2.6 2.7 3.2 1.1 2.3-1.2-.6-2.5-1.6-2.9-2.3-.5-.8-1-.6-1.6.8-.7 1.7-.8 1.6-.4-.3.2-1.3 0-2.6-.6-2.9-.6-.4-.9 2.5-.7 7.6.1 6.1-.2 8.4-1.2 9.1-1.2.8-1.2 1 .1.8 2.9-.3 5.3.1 4.7.8-.4.3-.1 1.3.6 2.1 1 1.2.9 1.6-.1 2-1 .3-.5 1.3 1.5 3.6l2.8 3.1-3.1-2.8c-1.6-1.5-3.3-2.7-3.7-2.7-.4 0-.7 3.8-.7 8.4v8.4l2.7-.3c2.4-.2 2.5-.1 1 1-2.5 1.8-2.1 2.9 2.4 7 3.9 3.5 4.9 6.3 1.2 3.4-1.6-1.3-1.7-1.2-.4.4.8 1 2.1 1.5 2.9 1.2.8-.3 2.5.4 3.7 1.5 2.2 2 2.4 2 6 .6 5.5-2.3 6.7-1.9 1.8.6l-4.2 2.2 5.9 5.8c3.3 3.2 5.6 5.8 5.2 5.8-.5 0-1.9-1.2-3.3-2.6-1.3-1.4-4.1-3.9-6.1-5.5-3.3-2.7-3.7-2.8-3.5-1 0 1.1.4 1.8.8 1.5.4-.2 1.9.8 3.3 2.3 1.5 1.6 2.1 3 1.5 3.3-1.5 1 11.3 4.2 13.6 3.5 1.5-.5 1.6-.4.6.3s0 1.3 3.8 2.3c2.8.7 5.1 1.8 5.1 2.3 0 2.1-7.5 16.1-9.7 18.1-1.3 1.1-2.3 2.6-2.3 3.3 0 1.6-1.9 5-4.4 7.9l-1.9 2.3H537V407.1c0-91.1-.3-130.2-1.1-130.6-.6-.4-1.3.2-1.5 1.2-.3 1.1-1.8 2.7-3.4 3.7-1.6.9-4.4 3.7-6.1 6.1-1.8 2.5-3.6 4.5-4 4.5-.4 0-3.7 2.2-7.3 5-3.7 2.7-6.6 4.5-6.6 3.9 0-.6-.6-.9-1.2-.6-.7.2-1.2.9-1.1 1.5.3 1-3 2.6-5.4 2.7-.7 0-1.9.9-2.7 2-.9 1.2-.5-.9 1.1-5.5 3.7-10.9 20-56.2 23.4-65.3l3-7.8-2.7-3.2c-1.5-1.7-6.8-7.6-11.9-13l-9.3-9.8 5.1 17.8c2.8 9.8 5.9 18.7 6.9 19.7 2.3 2.5 2.3 3.7.1 2.9-1.2-.5-1.5-.2-1 1 .9 2.3-1.1 3.2-3.1 1.4-2.1-1.7-16.8-2.5-15.7-.8.3.6.2 1.1-.4 1.1-.5 0-1.1-.5-1.3-1.2-.2-.6-1.4 1.6-2.7 5-1.2 3.4-2 6.6-1.6 7.1.3.5-.1 1.1-.7 1.4-.9.3-.1 1.8 2.2 4.3 6.6 7.3 7.5 8.9 1.7 3.4-5.7-5.5-7-6-4.1-1.5.9 1.4 1.2 2.9.8 3.7-1.2 1.9-1.7 6.7-.5 4.9.6-1 .8.6.6 4.5-.3 5 0 6.3 1.8 8.3l2.2 2.4-2.7-1.8-2.8-1.7.5 3.1c.3 1.7.7 4.6 1 6.3l.5 3.3-1.6-2.5c-.9-1.4-1.3-1.7-1-.7.3 1 .6 2.3.6 2.8s.8.9 1.8.9c1.3 0 1.4.2.3.9-1.7 1.1-.5 5.4 1.2 4.5.7-.4.9-.4.5.1-.4.4-.2 1.5.5 2.3 1 1.3.9 1.4-.2.7-1.1-.6-1.3-.4-.8.8.3 1 .3 1.7-.2 1.7-.4 0-.8.7-.8 1.5 0 2.2 1.5 1.8 2.2-.6.4-1.1.9-1.8 1.1-1.6.3.2-.1 1.6-.7 3.1l-1.2 2.6-2.9-2.7c-1.9-1.8-2.6-3.3-2.2-4.5.3-1.1 0-2.6-.8-3.5-.9-1.2-.9-1.5 0-.9.7.4 1.2.1 1.2-.9 0-.9-.5-1.3-1.1-.9-.8.4-.9-.1-.4-1.6.4-1.3.3-2-.2-1.7-.5.3-1.7-1.2-2.7-3.3-.9-2.2-2.8-4.8-4.1-5.8-1.6-1.3-2.3-2.8-2.2-4.8 0-1.6-.7-4.6-1.6-6.8-.9-2.1-1.7-4.4-1.7-5.1 0-.6-.3-1.5-.7-1.9-.5-.4-.8-1.1-.8-1.4-.1-.4-.7-1.8-1.4-3.1-.9-1.7-1-2.6-.2-3.4 1.4-1.4 1.4-4 0-3.1-.8.5-.9-.6-.5-3.7l.7-4.4-2 3.5c-2.6 4.5-2.6 3.8 0-3 2.4-6.2 3.7-13.8 1.8-10.7-.6 1-.8 2.5-.5 3.3.3.9.1 1.2-.4.9-1.4-.9-1.2-5.1.3-6.4 1-.8 1.7-.7 2.5.1.7.7 1.2.8 1.2.2 0-.6.7-1.9 1.6-3 1.4-1.8 1.5-1.8.4.4-1.5 3-.6 4.2 3.3 4.3l3.2.2-3.5.7c-2.6.6-1.4.8 4.9.9l8.4.1-1.9-2.2c-1.9-2.2-1.9-2.3.1-.8 1.1.8 2.2 1.8 2.5 2.2.3.3 4.5.8 9.3 1 10.9.4 11.2-.6 2.7-8.6-3.3-3.2-6-6-6-6.4 0-.3-1.2-2-2.7-3.7-1.6-1.7 1.3 1.2 6.4 6.5 5.1 5.2 9.3 9 9.3 8.5.1-.6-2.3-9.5-5.2-19.9l-5.3-19-8.8-9.2-8.7-9.2-12.6-.7c-6.9-.4-12.8-.4-13.1-.1-.4.3.4 1.8 1.8 3.4l2.4 2.7-2.6-2.3c-1.8-1.6-2.9-2-3.4-1.2s-1.1.8-1.9.1c-1-.8-1.7-.1-3.1 2.9-2 4.5-3.2 4.8-1.5.5.9-2.2.8-2.6-.2-1.8-.7.6-2.6 1.3-4.2 1.7l-2.9.7 2.3 2.4c1.3 1.4 2.6 2.2 3.1 2 .9-.6.6 2.2-.4 3.1-.4.4-.7.2-.7-.5 0-2.1-6.1-6.5-8.9-6.5-9.4.2-10 .4-11.6 3.1-.9 1.6-1.3 1.9-.9.8.7-2.3 1.3-7.7.7-7.1-.3.2-1.7 0-3.3-.4-2.5-.7-2.8-.6-2.4 1.3.3 1.7-.4 1.3-3.5-1.7-2.3-2.3-4.4-3.5-5.1-3.1-.7.4-2.4-.4-4-2-2.5-2.4-2.7-3.1-1.8-5.6 1.1-3.1 2.2-3.7 3.4-1.7.4.6.3.8-.3.5-1.2-.7-2.3 1.4-2.3 4.1 0 .9 1.6-.8 3.6-3.8 2.7-4.2 3.4-4.8 2.8-2.6l-.7 2.9 3.8-2.6c2.1-1.4 4.2-2.4 4.7-2.1 1.6 1 .8-1-1.4-3.5-1.9-2.1-1.9-2.3-.3-1.1 1.1.8 2.7 2.3 3.5 3.3 1.3 1.5 2 1.6 4.3.8 1.7-.7 3.6-.7 5.1-.1 1.5.5 2.7.5 3.5-.3.8-.8 1.1-.6 1.1.8 0 1 .3 1.5.7 1.2.3-.4 1.6-.1 2.7.6 1.2.8 3.2 1.6 4.4 2 2.3.6 2.4.5.6-1.6-1-1.2 0-.5 2.3 1.6 2.8 2.7 4.2 3.5 4.6 2.5.4-1 .7-1.1 1.8 0 1.1 1 1.6.8 2.6-1 1.3-2.3 1.3-2.3.7.3-.3 1.5 0 3 .8 3.6.7.6 6.4 1.3 12.6 1.6l11.3.5-9.5-10.4c-8.6-9.3-21.7-23.7-33.2-36.4-24.2-26.8-79.5-86-80.2-86-.4 0-6.8-.9-14.2-2-7.4-1-13.9-1.5-14.3-1.1-.4.4 1.5 3.5 4.4 6.7l5.2 5.9-5.3-5.3c-2.9-2.9-5.4-5.1-5.7-4.9-.2.3 1 6 2.8 12.6l3.2 12.2 2.5-2.8 2.4-2.8-2.2 3.7c-1.4 2.5-1.9 4.5-1.4 6.2.3 1.4 1 2.4 1.4 2.1.4-.3 1.4.3 2.1 1.3 1.3 1.5 1.2 1.6-.3.3-2.3-1.7-2.3-.8-.3 7 .9 3.3 2.5 6.9 3.5 7.9 2.4 2.4 6 2.6 6 .4 0-.9.6-2.2 1.3-2.8 2.3-1.9 8.7-14.5 7.7-15.1-.6-.4-1-1.1-1-1.6 0-.6.7-.4 1.5.5 1.4 1.4 1.3 2.1-1.3 7.3-4.6 9.1-4.6 9.3-.6 13.5 1.9 2.1 3.2 3.8 2.8 3.8-.4 0-2.1-1.6-3.8-3.6l-3.1-3.6-2.3 4.1c-1.7 3-1.9 3.9-.8 3.5.8-.3 3.3.4 5.5 1.6 2.4 1.4 4.8 2 6.1 1.7 1.6-.4 2.9.2 4.5 1.9l2.2 2.4 1.6-2.2 1.5-2.3-.5 2.6c-.5 2.6-.5 2.6 8.2 3.3 8.2.7 8.7.6 10.5-1.6 1.1-1.3 1.9-1.8 2-1.1 0 .6-.4 1.5-1 1.8-.5.3-1 1.5-1 2.6s.4 1.8.8 1.5c.4-.2 1.4-.1 2.2.5 1.1.6 1.2.9.2.9-.7 0-1 .5-.6 1.1.4.8 1.3.4 2.5-1.2l1.8-2.4-.6 2.3c-.8 3.4-2.2 3.7-5.1.9-2.3-2.1-4-2.7-11.1-3.3-6.2-.5-8.2-.4-7.7.5.4.6.3 1.1-.3 1.1-.5 0-1.1-.6-1.4-1.3-.2-.6-.6-1-.9-.7-1.1 1.2-6.8 12.1-6.8 13 0 .6 2.1 3.3 4.7 6.1 2.5 2.7 4.4 5.2 4.1 5.4-.3.3-2.6-1.7-5.2-4.5-4.3-4.6-6.6-6.4-5.1-4.1.3.5-.1 1.5-.8 2.3-.7.7-1.9 2.9-2.7 4.8-.7 1.9-1.7 4-2.2 4.6-.5.7-.3 3.1.4 5.8.7 2.7 1.5 4.1 1.9 3.4.5-.7.3-1.8-.3-2.5-.6-.8-.9-1.6-.6-1.8.2-.3 1.5 1 2.8 2.8 1.3 1.7 1.7 2.6.8 1.9-1.3-1-1.7-1-2.2.4-.8 2 2.4 15.5 3.5 14.8.5-.3.6.2.2 1.1-1.1 3.1 2 3.6 3.9.7 2.2-3.3 2.3-2.6.2 2.3-1.3 3.2-1.3 3.9-.1 5.4.8.9 1.2 2.2 1 2.9-.3.8 1.1 3.1 3.2 5.2 2 2 3.7 4.3 3.9 5.1.3 1.9 2.5 5.7 2.6 4.3 0-.5-.6-1.6-1.2-2.4-.7-.7-.2-.5 1.2.6 3.3 2.5 12.5 12.4 11.5 12.4-.4 0-2.4-1.8-4.5-4-2-2.2-4-3.7-4.3-3.4-.3.3.8 1.8 2.5 3.4 1.6 1.6 2.8 3.1 2.6 3.4-.2.3.5 1.5 1.5 2.6 1 1.2 1.5 2.5 1.2 3-.4.6-.1 1 .4 1 .6 0 1.1.6 1.1 1.2 0 .7.8 2.3 1.8 3.6l1.8 2.3 1.4-2.5c1.2-2.3 1.1-2.8-.6-4.8l-1.9-2.2 2.6 1.9c1.4 1 3.4 3 4.4 4.4l1.9 2.6-2.1-1.8c-2-1.7-2.1-1.7-3.5 1.9-1.4 3.4-1.4 3.8.4 5.6 1 1 2.3 1.8 2.8 1.8.6 0 1 .8 1 1.9 0 1 .7 2.4 1.6 3.2.8.7 1.3 2 1.1 3-.3.9.6 2.8 1.9 4.2 1.6 1.7 2 2.7 1.1 3-.8.4-.7.6.3.6.9.1 2.3-1.1 3.2-2.7 2.1-3.3 2.3-1.4.4 3.3l-1.5 3.5h3.7c2 0 6.1.3 9.1.7 5.3.6 5.4.6 4.8-1.6-.3-1.3-.3-2 0-1.7.4.3 1.1.1 1.8-.4.8-.7 2-.1 3.8 1.8 2.5 2.6 2.6 3.2 1.6 6l-1.1 3.2-3.2-2.5c-2.8-2.1-4.4-2.5-10.4-2.5-5.7 0-7 .3-6.8 1.5.1.8.8 2.1 1.4 2.7 2.4 2.4 1.1 2.6-1.4.3-3-2.8-5.9-3.4-5-.9.3.9.2 1.2-.5.9-.5-.4-1.7 1.2-2.7 3.4-.9 2.2-2.1 4.1-2.6 4.1-.4 0-.5-.7-.2-1.5s.9-2.1 1.2-2.9c.3-.9-.3-1.4-2-1.4-1.4 0-2.6.5-2.6 1s-1 .6-2.2.2c-2.1-.6-2.1-.4.7 2.7 1.7 1.9 3.4 3.7 4 4.1.5.4.7.9.5 1.2-.3.2-3.7-2.6-7.5-6.4-4.5-4.5-7.2-6.5-7.6-5.8-.6.9-1.1.9-2.2-.1-1.3-1-2.1 0-5.3 6.8-3.8 8.1-5.8 10.7-2.9 3.7.9-2.1 1.3-4.5 1-5.5-.7-2.2-8.7-5.1-9.2-3.4-.3.7-1.7.3-4-1.3-2-1.3-4-2.4-4.5-2.4-.4 0-1.8 1.5-2.9 3.2-1.2 1.8-1.8 2.4-1.4 1.3 2-5.4 1.8-6.2-1.5-6.9-4.2-.8-14.5-.8-15.3 0-.3.4-.1 1.6.5 2.8 1 1.9.9 1.9-.4.8-1.2-.9-1.8-1-2.3-.2-.5.8-1.1.8-2.1-.1-1.2-1-1.8-.8-3 .7-1.5 1.8-1.5 1.8-.5-.2 1.7-3.5-.4-4.4-10.7-4.4-8.3 0-9.3.2-8.2 1.5 1.7 2.1.1 1.9-2.3-.3-1.1-.9-1.7-1.1-1.3-.5.4.7.2 1.3-.4 1.3-.6 0-1.6 1.2-2.2 2.7-.7 1.6-1.8 3.6-2.6 4.5-.8 1-1.2 2.4-.8 3.3.3.9.2 1.4-.3 1.1-.5-.3-1.2.1-1.5 1-.8 2.2-.8 2.6.4 1.9.6-.3 1 0 1 .7s2.4 3.7 5.3 6.7c2.8 3.1 4.1 4.6 2.8 3.6-1.4-1.1-4.1-3.7-6.1-5.8-2-2-4-3.7-4.3-3.7-.4 0-2.5 3.7-4.8 8.1l-4 8.1 2.8 3.2c1.7 1.9 1.9 2.3.6 1.2-2.7-2.2-2.8-1.6-.9 4.8 1 3.2 1.1 4.6.3 4.3-.6-.2-2-3.3-3.2-7-1.8-5.8-3-7.7-10.4-15.4-4.7-4.8-8.6-8.3-8.8-7.7-.2.6-1.1 2-1.9 3-1.4 1.8-1.5 1.8-.5-.3.6-1.2 1.1-2.8 1.1-3.6 0-2.3-15.9-17.7-17.5-17-.8.3-1.5 0-1.5-.6s-1.7-1.1-3.9-1.1-4.3-.5-4.6-1c-.4-.6 1.5-1 4.9-1h5.6l2.9-5.8c4.4-8.6 3.8-12.8-2.5-19.5-4.6-4.9-3.8-4.3 4.9 3.3l2.8 2.5-1.5-3c-.9-1.8-1.2-3.1-.6-3.3.6-.2 1-1.2 1-2.3 0-1 .4-1.9.9-1.9s.7-.9.4-2c-.8-3 .6-9.2 1.9-8.4.7.4.8.3.4-.5-.4-.6-1.2-.8-1.8-.5-.6.4-.8.1-.6-.7.3-.8-.6-2.7-2.1-4.3l-2.6-2.9 3 2 3 2.1-.1-6.9c-.1-3.8-.5-8.2-.8-9.7-.5-2-.4-2.3.4-1.2.8 1.3 1 1.3 1-.1 0-2.4-1.1-3-2.8-1.6-1.3 1-1.4.9-.8-.1.5-.8.3-2.4-.4-3.7-1-1.9-1-3 0-5.5l1.3-3.1 3.4 3.3c2.3 2.3 3.2 3.9 2.9 5.3-.3 1.3.4 3 2.2 5 2.5 2.8 2.6 2.9.2 1-1.4-1.1-2.9-2.5-3.3-3-.5-.6-.6.1-.3 1.5s.6 2.9.6 3.5c0 .5.4.4.9-.4.7-1 1.1-.5 1.6 1.8.3 1.7 1.1 3.1 1.6 3.1s.9.9.9 1.9c0 1.1.7 2.6 1.5 3.4.8.8 1.1 1.7.8 2.1-.3.3.1.8 1 1.2.9.3 1.4 1.3 1.1 2.2-.3.9.6-.1 2-2.3l2.5-3.9-2.7-3.1-2.7-3 3 2.5c1.7 1.4 3.1 2.6 3.3 2.7.2 0-.6 2-1.7 4.4-1.5 3.1-1.8 4.6-1 5.5.6.7.8 1.8.4 2.4-.3.5-.1 1 .4 1 .6 0 1.1.7 1.1 1.5s.9 1.9 2.1 2.5c1.2.7 1.8 1.8 1.5 2.6-.3.7-.2 1.3.2 1.3 1.9-.3 3.3.2 2.8 1-.3.5.6 2 2 3.5 1.8 1.7 2.5 3.3 2.1 4.6-.3 1.1-.1 1.8.4 1.4.5-.3.9-.9.9-1.4 0-.5 1.6-3.5 3.5-6.7 4.4-7.3 4.4-6.6 0 3.2-2.1 4.5-2.9 7.3-2 6.5 1.3-1.1 1.5-.9 1.5 1.3 0 1.4.5 2.9 1 3.2.6.3 1 1.4 1 2.4 0 1.1.9 2.1 2.1 2.4 1.2.3 1.8 1 1.5 1.5-.3.6.3 2.1 1.5 3.3 1.1 1.3 1.7 1.7 1.3.9-.4-.8.5-.4 2 1 2.7 2.5 2.8 2.5 4.3.5 1.5-1.9 1.5-1.9.9.6-.6 2.6-.5 2.6 7.1 3.3 13.5 1.1 14.5.7 10.1-4.3l-2.3-2.6 2.6 2.2c1.9 1.8 2.8 2 3.7 1.1.9-.9 1.5-.9 2.4 0 .9.9 1.4.7 2.4-.6 1.2-1.5 1.3-1.4 1.1 1.3l-.2 3 10 .2c6.4.1 9.1-.2 7.5-.7-1.4-.4-1.9-.8-1.1-.9 1.1-.1 1.1-.5-.2-1.9-1.9-2.1-2.3-4.2-.5-2.4 2.1 2.1 3.7 1.3 4.4-2.3.3-1.9 1.1-3.5 1.8-3.5.6 0 .4-.5-.4-1-1.9-1-2.6-8-1-9 .7-.5-.2-2.3-2.7-5.3-4.3-5.2-4.9-5.5-5.8-2.6-.4 1.1-.9 1.8-1.2 1.6-.2-.3.5-2.2 1.7-4.4 1.2-2.1 1.9-3.1 1.6-2.2-.3 1 1.3 3.3 4.2 6 2.5 2.4 4 3.6 3.2 2.6-1.2-1.6-1.2-2 0-2.7 1.1-.7 1.1-1.2.2-2.3-.7-.7-.9-1.7-.5-2.1.4-.4.9-2.4 1-4.4.1-2 .4-5 .5-6.6.5-4.7-1.7-4-4.2 1.4-1.3 2.7-2.5 4.8-2.7 4.6-.2-.2 2.1-5.9 5.3-12.6 4.1-8.9 5.3-12.5 4.5-13.3-.6-.6-1.1-2.2-1.1-3.6 0-1.6-1.6-4.2-4.2-7.1-3.8-4-3.9-4.1-.5-1 2.3 2.1 3.7 2.9 3.7 1.9 0-1.2.2-1.2 1 .1 1.5 2.3 1.2.5-1.2-8.2-1.4-5.4-2.4-7.5-3-6.6-.6.9-.7.6-.3-.9.3-1.2.3-3.4-.1-4.9l-.7-2.7-1.8 3.4c-2.3 4.3-2.4 3.2-.3-2.1 1.6-4 1.6-4.2-.5-6.1-2.5-2.3-2.9-3.8-.5-1.8 1.5 1.2 1.6 1.1 1.1-.6-.3-1.1-.9-3.2-1.3-4.8-.3-1.5-1-2.7-1.4-2.7-.5 0-.6-.8-.4-1.8.2-.9-.2-3.7-1-6.2s-1.5-3.8-1.5-3c-.1 1.3-.2 1.3-1.1 0-.5-.8-1-2.2-1-3 0-1.3.1-1.3 1 0 .6.9 1 1 1 .3 0-1.6-2.3-2.9-2.7-1.6-.2.6-1 1.9-1.8 2.9-1.2 1.6-1.2 1.2.1-1.9 1.1-2.9 1.2-4.2.4-5.2-.6-.8-1-2.3-.8-3.4.2-1.1-1-3.4-2.7-5.3l-3-3.3 3.1 2.7c1.6 1.6 3.3 2.8 3.6 2.8.5 0-.6-4.6-3.6-15.5-.8-2.8-1.7-6.3-2.1-7.9-.5-2.3-.8-2.7-1.6-1.5-.6 1-.7.5-.4-1.6.7-4.1-6.6-30.1-8.4-29.7-.7.1-.9-.2-.6-.8.4-.6-.1-1.7-1-2.4-1.4-1-1.5-1.6-.4-3.9 1.5-3.3 2-3.3 5.1-.3 2 2.1 4.3 2.7 14.4 4.1 6.5.9 12.7 1.9 13.8 2.2 1 .3-4.2-6.1-11.5-14.1-7.4-8-13.7-14.6-14-14.6-.4 0-6.6 3.9-13.8 8.6zM286 43.4c0 .2-.7.9-1.5 1.6-1.3 1.1-1.4 1-.9-.4.5-1.4 2.4-2.3 2.4-1.2zm59 3.6c-.6 1.1-1.3 2-1.6 2-.2 0 0-.9.6-2s1.3-2 1.6-2c.2 0 0 .9-.6 2zm-50.5.9c-.3.6-1.1 1.1-1.7 1.1-.6 0-.6-.6.2-1.5 1.4-1.7 2.6-1.3 1.5.4zM340 57c0 .4 1.4 2.3 3.1 4.1 6.5 7.1 7.1 8.2 1.7 3-3.2-3-5.9-5.3-6.1-5-.2.2-1 1.3-1.6 2.4l-1.3 2 .8-2c.4-1.1.8-3 .8-4.1.1-2 2.6-2.3 2.6-.4zm6.4 30.5c.2.6-.2 1.2-1 1.2s-1.2-.3-.9-.5c.3-.3-.7-1.9-2.2-3.5l-2.8-3 3.2 2.3c1.8 1.3 3.4 2.8 3.7 3.5zm-117.1 1.9c.3.8-.6 2.4-1.9 3.7-1.9 1.8-2.3 1.9-1.8.6.3-.9 1-1.7 1.6-1.7.5 0 .6-.5.3-1-.3-.6-.3-1.5 0-2 .8-1.3 1.2-1.3 1.8.4zm111.7.2c0 .2-.7.4-1.5.4s-1.5-.4-1.5-1c0-.5.7-.7 1.5-.4.8.4 1.5.8 1.5 1zm-47.8 13.3c-.9 2.5-.6 4.8 1.4 12.3 1.4 5.1 2.9 11.1 3.5 13.2.8 3 1.3 3.6 2 2.5.7-1 .8-.6.4 1.2-.7 3 6 29.9 7.8 31.4.7.5 1.8 2.2 2.5 3.6 1.2 2.2 1.2 3.1 0 5.3l-1.4 2.6-3.2-3.3c-3-3.1-3.2-3.6-2.1-6 1-2.3.7-4.6-2.1-15.4-1.8-7.1-3.7-13-4.2-13.1-.4-.2-.6-.7-.3-1.2.6-1-6.5-29.1-7.8-30.7-.5-.7-1.3-1-1.8-.7-.5.3-.6-.1-.3-.9s-.2-1.9-1-2.6c-1.4-1.2-1.4-1.6 0-4.3l1.6-3.1 3 3.1c2.8 2.7 3 3.3 2 6.1zm-36.9-6.4c-.3.9-.8 1.4-1 1.1-.3-.3-.2-.9.2-1.5.9-1.6 1.5-1.3.8.4zM358 100c0 .5-.2 1-.4 1-.3 0-.8-.5-1.1-1-.3-.6-.1-1 .4-1 .6 0 1.1.4 1.1 1zm31.4 8.5c-.4.8-1.1 1.2-1.7.8-.8-.5-.7-.8.1-1.1.7-.2.9-.9.6-1.4-.4-.7-.2-.8.4-.4.6.4.9 1.3.6 2.1zM213 116.4c0 .3-.4.8-1 1.1-.5.3-1 .1-1-.4 0-.6.5-1.1 1-1.1.6 0 1 .2 1 .4zm94.5 1.6c.3.5.1 1-.4 1-.6 0-1.1-.5-1.1-1 0-.6.2-1 .4-1 .3 0 .8.4 1.1 1zm-137.8 12.8c-6.4 6.4-11.7 12.3-11.7 13 0 .6-.3 1.1-.7 1.1-2.1-.3-2.6.2-1.3 1.2 1.3.9 1.2 1-.2.5-1.8-.5-6.8 4.8-6.8 7.2 0 .7-.9 1.2-1.9 1.2-1 0-2.1.7-2.4 1.5-.5 1.1.1 1 2.6-.4 1.8-1 3.1-2.4 3-2.9-.2-.6.4-.9 1.2-.6 1 .4 1.3.2 1-.8-.3-.8.2-2.1 1.2-2.9 1.6-1.3 1.7-1.2.4.4-.8.9-1.1 2-.7 2.4.8.9-3.4 5.3-5 5.3-.8 0-1.1.6-.8 1.4.3.9-.1 1.3-1.3 1.3-.9-.1-1.8.4-1.8 1.1 0 .7-.4 1.6-1 2-.5.4-1.1 1.5-1.1 2.5-.1 1.2.2 1.5 1 .8.8-.6 1.1-.2 1.3 1.6 0 1.4.9 3.3 1.8 4.2 1 .9 1.5 1 1.1.4-.5-.9.1-1.2 1.8-1.1 1.5.1 2.6.6 2.6 1s1.6-.2 3.5-1.3c1.9-1.2 3.5-1.7 3.5-1.3 0 .4.6-.1 1.4-1.2.8-1 2.7-2 4.3-2.1 5.5-.4 7.8-1.1 7.5-2.2-.1-.6.5-1.1 1.3-1.1s1.5-.7 1.5-1.5.5-1.5 1.1-1.5c.6 0 .8.7.5 1.6-.4 1.2-.2 1.5.9 1 .8-.3 1.5-.1 1.5.5s.7.3 1.6-.6c.9-.9 2.2-1.4 2.9-1.2.6.3 1.7-.4 2.4-1.4.6-1.1 1.5-1.7 2-1.5.4.3 4.8-3.6 9.7-8.6 4.9-5.1 9.1-9.2 9.4-9.3.3 0 1.2-.4 2-.9s-4.5 5.2-11.8 12.6c-7.3 7.4-12.9 13.8-12.5 14.3.4.4.3.5-.3.2s-2.4.8-4 2.6l-2.9 3.2 2.9-2.5 2.9-2.5-2.4 3.7c-1.5 2.3-3 3.5-4.1 3.3-.9-.2-2.2.3-2.9 1.1-.6.8-.8 1.4-.4 1.4s.2.7-.5 1.5-.9 1.5-.4 1.5-.9 1.2-3.1 2.6c-5.7 3.8-10.2 8.2-13.8 13.4-1.7 2.5-3.5 4.8-4.1 5.2-1.6 1.1-2.8 1-2.1-.2 1.1-1.8-.1-1.1-2.1 1.2-1.2 1.3-1.3 1.8-.4 1.3 1.3-.8 1.3-.6.1.8-.7.9-1.7 1.5-2.1 1.2-.4-.2-1.6.5-2.6 1.7-1.9 2.1-1.9 2.1.6.9l2.5-1.2-2.5 2c-1.3 1-2.7 1.8-3 1.6-.4-.2-6.8 5.9-14.4 13.6-7.6 7.6-14.3 13.9-14.8 13.9s-.7.4-.4.8c.3.4-3.1 4.1-7.5 8.1-7.3 6.7-19.6 20-22.7 24.7-.7 1-1 1.2-.6.4.4-.9.3-1.2-.2-.7s-.8 1.1-.6 1.3c.2.3-.3 1.6-1.2 2.9-1.4 2.2-1.4 2.4.1 2.7 1.2.2.7 1-1.9 2.8-2 1.3-3.4 2.8-3.2 3.2.3.5-.6 1.2-1.9 1.7-1.3.5-2.7 1.9-3 3.1-.3 1.4-1 1.9-1.7 1.5-.9-.6-.9-.2 0 1.5.7 1.3.8 2 .2 1.6-.6-.3-1.3-.2-1.7.4-.3.5-.3 1 .2 1 .4 0 .9 1.4 1 3 .1 1.7-.1 3-.5 3-1.5-.1-4.1-2.7-3.4-3.5.4-.4-.9 0-2.8 1s-3.8 2.2-4.1 2.7c-.3.5-1.5 1-2.6 1.1-1.3.1-1.9.7-1.6 1.7.2.9-.5 2.4-1.7 3.5-2.1 1.9-2.1 1.9-1.1-.7.8-2.1.7-2.6-.4-2.4-2.2.3-6.5 4.8-5.8 5.9.3.6.1.7-.5.3-.6-.3-3 1.3-5.4 3.6-2.4 2.4-5.4 5.2-6.8 6.3-2.3 1.9-2.2 1.7.4-1.5 1.5-1.9 5.5-6.4 8.9-10 3.4-3.5 5.5-5.9 4.6-5.2-1.4 1-1.8 1-2.3-.3-.3-.8-.1-1.5.5-1.5s.7-.5.4-1.1c-.4-.5 0-1.8.8-2.7 2-2.4 10.7-17.4 10.7-18.7 0-.5-1.6 1.5-3.6 4.5-5.1 7.7-6.3 8.5-2.6 1.9 1.7-3.1 2.8-5.9 2.5-6.3-.3-.3 0-1.3.8-2.3 1.1-1.4 1.1-1.5 0-.9-1 .7-1.2.3-.6-1.5.4-1.3 1.3-3 2.1-3.8 1.1-1.3 1.4-1.2 2 .2.3.9 1.1 1.4 1.7 1 .6-.4.8-.1.5.8-1.9 4.6-1.8 5 .6 1.9 1.5-1.9 3.2-3.4 3.7-3.2.5.1.9-.3.9-1 0-.6.2-.9.5-.6 1.1 1.1 8.9-1.3 10.5-3.2 1.8-2.1 3.6-2.8 2.5-1-.9 1.4.8 1.2 2.4-.3 1.1-1 1.2-.9.6.2-.6 1-.4 1.2.6.5.8-.4 2-.9 2.8-1.1 1.3-.2 26-23.7 26.9-25.6.2-.4 5-5.3 10.8-10.9 5.7-5.5 10.1-10.5 9.8-11-.3-.5-.2-.7.3-.6.5.2 1.9-.7 3.2-1.9 1.7-1.6 2.4-3.4 2.5-6.7.1-2.4-.2-4.2-.6-4-1.9 1.2-.6-1 1.7-2.8 2.9-2.2 3.5-6.1.8-5.1-1.1.4-1.4.3-.9-.5.4-.7 1.3-1.2 2-1.2.8 0 1.6-.9 1.9-2 .3-1.1.1-1.8-.4-1.4-1.5.9-1-.2 2.6-5.5 3.2-4.9 3.7-8.1 1.1-8.1-.6 0-.3-.5.7-1.1.9-.5 1.7-1.4 1.7-2 0-1-7.1-5.5-8.1-5.2-.4.1-.5-.8-.2-2 .4-2 .3-2-.9-.5-1.3 1.5-1.5 1.5-2.6-.2-.8-1.3-.8-2.1-.1-2.6.7-.4.2-1.5-1.2-3-1.2-1.3-2.5-2.1-3-1.9-.4.3-.5-.4-.2-1.5.4-1.4-.1-2.1-2.1-2.6-2.5-.6-3.2-2.9-.9-2.9.6 0 1.5-.4 2-.9s.3-.6-.4-.2c-1.7.9-1.7-.2 0-1.7.7-.7 3.7-3.5 6.7-6.2 4-3.8 4.8-4.2 3.2-1.9-1.2 1.7-2.8 3.7-3.6 4.4-.9.7-1.3 1.7-.9 2.3.3.6.1.7-.5.3-1.5-.9-4.4 3.7-3.6 5.8.3.9 1.1 1.6 1.7 1.6.6 0 2.4 1.2 4.1 2.7 1.7 1.6 2.4 2 1.7 1-1.2-1.5-1.2-1.7.1-1.2 1.4.6 6.8-5.1 6.8-7.2 0-.4.9-1.9 2-3.3 3.2-4 2.3-.2-1.1 4.9l-3.1 4.6 5.6-5.4c3-3 5.2-5.9 4.9-6.4-.3-.6-.2-.7.4-.4.5.3 7-5.5 14.4-12.9 7.3-7.3 13.8-13.4 14.4-13.4.5 0-4.3 5.3-10.8 11.8zm162.4-8.5c-1 .9-1.1.8-.5-.6.3-1 .9-1.5 1.2-1.2.3.3 0 1.1-.7 1.8zm9.9 8.2c1.4 1.9 1.4 1.9-.2.6-1-.7-1.8-1.8-1.8-2.4 0-.6.1-.8.3-.6.1.2.9 1.3 1.7 2.4zm-130.8 6.7c-.7.7-1.2.8-1.2.2 0-1.4 1.2-2.6 1.9-1.9.2.3-.1 1.1-.7 1.7zM325 136c0 .5-.5 1-1.1 1-.5 0-.7-.5-.4-1 .3-.6.8-1 1.1-1 .2 0 .4.4.4 1zm49 4.1c0 1.4-1.7 1-2.3-.5-.4-1-.1-1.3.9-.9.7.3 1.4.9 1.4 1.4zm-233 3.4c0 .2-1 1-2.2 1.6-2.1 1.1-2.2 1.1-.9-.4 1.3-1.6 3.1-2.3 3.1-1.2zm176 8.5c0 .5-.5 1-1.1 1-.5 0-.7-.5-.4-1 .3-.6.8-1 1.1-1 .2 0 .4.4.4 1zm-126 2.4c0 .2-.8 1-1.7 1.7-1.6 1.3-1.7 1.2-.4-.4 1.3-1.6 2.1-2.1 2.1-1.3zm173.6 3.8c-.9 1.2-1.6 1.9-1.6 1.5 0-1.1 2.4-4.7 2.8-4.2.2.2-.3 1.4-1.2 2.7zm49.1.3c0 .8-.4 1.5-.9 1.5-1 0-1.1-1.4-.1-2.3.9-1 1-.9 1 .8zm23.4 4.8l2.1 3.2-3.1-3.4c-3.1-3.4-3.9-4.7-2.1-3.6.5.3 1.9 2 3.1 3.8zM243 160.8c0 .5-.7 1.7-1.6 2.8-.8 1-1.4 1.4-1.1.9.2-.6.7-1.8 1-2.8.7-1.7 1.7-2.3 1.7-.9zm168.1 2.9c-1.2 2-1.4 1.4-.5-1.2.4-.9.9-1.4 1.1-1.1.3.2 0 1.3-.6 2.3zM167 165c0 .5-.5 1-1.1 1-.5 0-.7-.5-.4-1 .3-.6.8-1 1.1-1 .2 0 .4.4.4 1zm71.6.5c-.2 1.7-48.4 50.5-49.8 50.5-.4 0-.8.6-.8 1.4 0 .7-.7 2-1.7 2.7-1.5 1.3-1.5 1.2-.5-.8 1.7-3 1.4-4.2-.3-1.9-1.5 2-1.5 2-1.5 0 0-2.4-4.3-6.8-5.4-5.7-.4.5-.6.3-.4-.2.5-1.8-4-6.8-5.6-6.2-1 .4-1.3.1-.9-.9.3-.7 1.1-1.4 1.9-1.4.8 0 1.4-.5 1.4-1.1 0-.5-.4-.7-1-.4-.5.3-1 .1-1-.4 0-2 2-1.1 3 1.3.4 1.3 1.9 3.2 3.2 4.2 1.3 1.1 3.5 3.4 5 5.2 2.7 3.2 2.8 3.3 4.5 1.3.9-1.1 2-1.8 2.3-1.6.4.2 11.2-10.3 24.1-23.4 12.9-13.1 23.5-23.9 23.6-24 .1 0 0 .6-.1 1.4zM249 177c-.6 1.1-1.3 2-1.6 2-.2 0 0-.9.6-2s1.3-2 1.6-2c.2 0 0 .9-.6 2zm-72 1c0 .5-.5 1-1.1 1-.5 0-.7-.5-.4-1 .3-.6.8-1 1.1-1 .2 0 .4.4.4 1zm68.2 6.2c-.7.7-1.2.8-1.2.2 0-1.4 1.2-2.6 1.9-1.9.2.3-.1 1.1-.7 1.7zm31.3 3.8c1 1.1 1.6 2 1.3 2-.3 0-1.3-.9-2.3-2-1-1.1-1.6-2-1.3-2 .3 0 1.3.9 2.3 2zm209.4 11.4c-1.8 4.2-3.4 7.5-3.6 7.3-.2-.2 1.1-4.2 2.9-8.8 1.7-4.6 3.3-7.8 3.5-7.2.2.6-1 4.5-2.8 8.7zM467 194c0 .5-.2 1-.4 1-.3 0-.8-.5-1.1-1-.3-.6-.1-1 .4-1 .6 0 1.1.4 1.1 1zm-316.9 11.3c-1 .9-1.1.8-.5-.6.3-1 .9-1.5 1.2-1.2.3.3 0 1.1-.7 1.8zm-19.1.1c0 .2-.8 1-1.7 1.7-1.6 1.3-1.7 1.2-.4-.4 1.3-1.6 2.1-2.1 2.1-1.3zm61.1 3.9c-1 .9-1.1.8-.5-.6.3-1 .9-1.5 1.2-1.2.3.3 0 1.1-.7 1.8zm289.9 1.3c0 .8-.4 1.2-1 .9-.5-.3-1-1-1-1.6 0-.5.5-.9 1-.9.6 0 1 .7 1 1.6zM92.7 213c.3 1.1.9 2 1.3 2 .5 0 1.8 1.6 3 3.5s2.6 3.3 3.1 2.9c1-.6 1.2.7.3 3-.3.9-1.1 1.6-1.7 1.6-.6 0-.8-.3-.4-.6.3-.3-.7-2-2.3-3.8-1.7-1.7-3-3.8-3-4.6 0-.9-.9-2.2-1.9-3-1.1-.7-1.8-1.7-1.5-2.2.9-1.5 2.6-.8 3.1 1.2zm245.3 2.8c0 .5-.7 1.7-1.5 2.8-1.4 1.8-1.4 1.7-.4-.9 1.2-2.7 1.9-3.4 1.9-1.9zm63.1.9c1.3 1.6 1.2 1.7-.3.4-1.7-1.3-2.2-2.1-1.4-2.1.2 0 1 .8 1.7 1.7zm86 0c1.3 1.6 1.2 1.7-.3.4-1.7-1.3-2.2-2.1-1.4-2.1.2 0 1 .8 1.7 1.7zM227 218c0 .5-.5 1-1.1 1-.5 0-.7-.5-.4-1 .3-.6.8-1 1.1-1 .2 0 .4.4.4 1zm181 5.9c0 .6-.4 1.2-.8 1.5-.5.3-.9-.1-.9-.9s.4-1.5.9-1.5c.4 0 .8.4.8.9zm-74.7 1.6c-.3.9-.8 1.4-1 1.1-.3-.3-.2-.9.2-1.5.9-1.6 1.5-1.3.8.4zm142.7.5c0 .5-.4 1-1 1-.5 0-1-.5-1-1 0-.6.5-1 1-1 .6 0 1 .4 1 1zm-133.1 4.4c-.2.2-1.3-.8-2.3-2.2l-1.9-2.7 2.4 2.2c1.2 1.2 2.1 2.4 1.8 2.7zm-11.8-.1c-1 .9-1.1.8-.5-.6.3-1 .9-1.5 1.2-1.2.3.3 0 1.1-.7 1.8zm162.1 5.4c-.3 1.6-.7 2.2-1 1.5-.4-1.3.4-4.2 1.1-4.2.2 0 .2 1.2-.1 2.7zm-284.8 3.9c17.3 4.2 19.2 4.5 22.9 3.4 4-1.2 4.2-1.1 7.1 2.1l2.9 3.3-2.8 2.2-2.8 2.2.6 9.7c.4 5.4.8 10 1.1 10.2.2.3 1.3 0 2.4-.6 3.9-2.1 4.7-1.1 1.1 1.2l-3.6 2.2v16l.6-7.3.6-7.3 6.4 6.6c3.5 3.6 7 6.5 7.8 6.5.7 0 1.3.4 1.3 1 0 1 1.2.6 10.3-3.4 3.1-1.4 5.7-2.4 5.7-2.2 0 .2-2.5 1.8-5.6 3.6-3.1 1.7-5.3 3.4-5 3.7.3.3.1 1.2-.5 2-.9 1-.6 1.3 1.4 1.3 1.4 0 3.3.3 4.1.6 1.4.5 1.4.9.4 2.2-1.1 1.4-1 1.4.6.5 2.1-1.2 5.8-.1 8.4 2.4 2.3 2.2 5.2 3.4 6.4 2.7.7-.5.8-.3.3.6-.8 1.4.6 1.2 5-.6 1.9-.7 1.9-.7.3.9-.9.9-2.3 1.7-3 1.7-.8 0-.6.5.5 1.1 1 .6 2.5.8 3.2.5.8-.3 2 .3 2.8 1.4.7 1 3.5 2.8 6.3 3.9 2.7 1.1 4.3 2 3.5 2-.8.1-1.2.4-.8.7.3.3 1.5.3 2.7-.1 2.2-.7 2.2-.7-.6-3.8-2.1-2.4-1.8-2.2 1.2.6 2.8 2.6 4.6 3.6 5.8 3.1 1.1-.4 2.7.3 4.7 2.2 1.6 1.5 2.9 3.1 2.9 3.5 0 .3-1.3 1.2-2.9 1.9-2.3.9-3.3.9-4.9-.1-1.8-1.1-2.7-1-5.8.4-2 1-3.8 1.6-4.1 1.4-.2-.2 1-1 2.7-1.7 1.6-.7 2.7-1.7 2.3-2.3-.4-.6-.1-.7.8-.2 1 .5 1.1.5.4-.3-.5-.6-2.1-1.2-3.5-1.5-1.4-.2-1.9-.2-1.2 0 1.3.5 1.7 2.3.5 2.3-.5 0-1.5-.4-2.3-1-.9-.6-2-.5-2.9.3-1.2.9-1.3.9-.7-.1.5-.8-.2-1.2-2.3-1.2-1.7 0-3.1.4-3.1 1s-.9.6-2.6 0c-2.6-1-2.5-1 .8 3.2l3.3 4.3-5-4.3c-2.7-2.4-5.1-3.9-5.3-3.3-.2.6-1.7.5-4.2-.4-2.1-.7-4.1-1.1-4.4-.8-.3.4-.6.1-.6-.7 0-1-.3-1-1.6.1s-1.7 1-2.5-.4c-1.2-2.1-2-2.1-6.6-.2-3.2 1.3-3.4 1.7-2.2 3.3 1.3 1.6 1.3 1.6-.5.2-1.1-.8-5.4-4.7-9.5-8.7-5.7-5.4-8.1-7.1-9.6-6.7-1.4.3-3-.5-4.9-2.5-1.6-1.7-2.7-3.4-2.3-3.7.3-.4 1.8.7 3.2 2.4 2.3 2.8 2.9 3 5.1 2l2.4-1.1-2.2-2.4c-1.4-1.5-3-2.2-4.3-2-1.4.3-3.2-1-6.5-4.7l-4.4-5.1 4.1 3.9 4.2 3.9 1-3.4 1.1-3.4-.3 3.7c-.2 2 .1 3.4.5 3.2 1-.6.9-17.6-.1-19.2-.4-.7-2.1-.4-5.1.9-4.6 2-3.6.7 2-2.3 3-1.7 3.1-1.8 1.4-4.5-1.4-2.4-1.4-2.6 0-.9 1.5 1.8 1.6 1.2 1.6-9.2 0-13.5-.4-13.9-9.3-9.2-7.7 4.1-7.2 3.6-5.6 5.6 1.3 1.6 1.2 1.6-.7.4-1.9-1.2-3.1-.8-10.7 3.2l-8.5 4.6-9.7-9.6c-5.3-5.3-10-9.1-10.3-8.6-.4.6-1.6 1.4-2.7 1.7-1.6.6-1.5.3.5-1.2l2.5-2-2.8-2.1c-1.5-1.2-2.7-2.7-2.7-3.3 0-.6 1.5.4 3.3 2.1l3.4 3.3 4.6-2.7c2.6-1.4 4.7-2.3 4.7-2 0 .3-1.8 1.5-4 2.6s-4 2.4-4 2.8c0 .4 3.8 4.6 8.5 9.2l8.6 8.5 8.4-4.5c8.2-4.4 8.3-4.5 6.7-6.5-1.7-2-1.7-2 .4-.2 2 1.7 2.3 1.6 8.4-1.7 9.9-5.2 10.2-5-10.9-10.1-5.7-1.4-10.5-2.4-10.8-2.2-.2.2 1.1 1.7 2.9 3.4 1.8 1.6 3.9 3.8 4.7 4.8.8 1.1-1.3-.7-4.7-3.9-5.8-5.7-6.3-5.9-8.9-4.8-2.5 1.1-2.6 1.1-1-.2 1.6-1.2 1.4-1.4-2-2-5.9-1.1-7.4-1.7-6.7-2.7.3-.5 1.3-.8 2.2-.5 1 .3 10.2 2.6 20.6 5.2zm199.3-2c-.3.3-1.2.4-1.9.1-.8-.3-.5-.6.6-.6 1.1-.1 1.7.2 1.3.5zm105.4 9.1c-1.2 2-1.4 1.4-.5-1.2.4-.9.9-1.4 1.1-1.1.3.2 0 1.3-.6 2.3zm-348.6 13.8c.9 17.1 1.5 20 4.1 19.9 1-.1 2.8-.4 3.9-.8s.8 0-.7.9c-2.9 1.6-3.5 3-1.8 4 .8.5.8 1.1.1 1.9-.8 1 .8 3.1 6.2 8.4 7.7 7.4 11.8 11.9 8.5 9.4-1.4-1.1-2.1-1.1-4.3.1-2.5 1.3-2.7 1.9-2.9 8 0 3.7.3 6.7.7 6.7.5 0 .6.4.3.9s.8 2.3 2.5 4.1c2.8 2.8 3.4 3.1 5.6 2.1 1.3-.6 2.2-.7 1.9-.2-.3.4-4.2 2.6-8.6 4.7-7.9 3.7-9 4.7-7 5.9 1.4.9-.4 3.1-2.9 3.8-1.9.5-9-4.7-7.9-5.8.4-.4 1.9.7 3.5 2.5 2.6 2.9 3 3 4.8 1.6 2-1.5 2-1.5-.3-3.6-1.5-1.4-2.9-1.9-4.2-1.5-1.1.4-2.1.2-2.1-.4-.1-.6-.3-1.4-.4-1.9-.2-.4-.6-1.7-1-3-.4-1.2-1.4-2.2-2.3-2.2-1.2 0-1 .6.8 2.5 1.3 1.4 2.1 2.5 1.9 2.5-.3 0-1.8-1.4-3.5-3.1-1.6-1.7-2.4-3-1.9-2.9.6.1 1.7.2 2.5.1 1.1-.1 1.2-.3.3-.9-.7-.4-1.4-1.8-1.6-3.1-.4-2.8-2.2-4-5.1-3.4-1.9.4-1.8.3.5-1.4 2.2-1.6 2.4-2.3 1.8-5.3-.4-1.9-.5-3.8-.3-4.2.3-.5 0-.8-.5-.8-.6 0-1.1-.5-1.1-1.1 0-.5.5-.7 1-.4 1.9 1.2 1-2.9-1.2-5.3l-2.3-2.5 2.3 1.2c1.2.6 2.3 1 2.3.9.1-.2.3-1.6.5-3.2s.9-3.3 1.6-3.7c.7-.5.9-.9.4-.9s-.2-.7.5-1.7c1.3-1.5 1.2-1.5-.9-.4-1.3.7-2.6 1-2.9.8-.3-.3.9-1.3 2.7-2.2 2.7-1.4 3-1.9 1.9-3.2-1.1-1.3-1-1.8 1-3.4 2.3-1.9 2.3-2 1.6-17.9-.5-10.7-.4-16 .3-16 .6 0 1.3 5.4 1.7 13.5zm199.5-9c1.3 1.4 2.1 2.5 1.8 2.5-.2 0-1.5-1.1-2.8-2.5-1.3-1.4-2.1-2.5-1.8-2.5.2 0 1.5 1.1 2.8 2.5zm-43.7 0c-.3.9-.8 1.4-1 1.1-.3-.3-.2-.9.2-1.5.9-1.6 1.5-1.3.8.4zM171.5 253c-.3.5-1.2 1-1.8 1-.7 0-.6-.4.3-1 1.9-1.2 2.3-1.2 1.5 0zm-4 2c-.3.5-1.2 1-1.8 1-.7 0-.6-.4.3-1 1.9-1.2 2.3-1.2 1.5 0zm150.8.5c-.3.9-.8 1.4-1 1.1-.3-.3-.2-.9.2-1.5.9-1.6 1.5-1.3.8.4zm145.7 4c1.4 1.9 1.4 1.9-.2.6-1-.7-1.8-1.8-1.8-2.4 0-.6.1-.8.3-.6.1.2.9 1.3 1.7 2.4zm-296.5 1.2l1.8 2.8-2.1-1.9c-1.2-1.1-2.2-2.3-2.2-2.8 0-1.4.7-.9 2.5 1.9zm60.9 7c.8 2 .3 1.7-3.5-2.3l-3.4-3.7 3.2 2.3c1.8 1.3 3.4 2.9 3.7 3.7zm133.1 6.3c.3.5.1 1-.4 1-.6 0-1.1-.5-1.1-1 0-.6.2-1 .4-1 .3 0 .8.4 1.1 1zm138 0c.3.5.1 1-.4 1-.6 0-1.1-.5-1.1-1 0-.6.2-1 .4-1 .3 0 .8.4 1.1 1zm-338.2 4.5c.4-.3.3 0-.3.7-.5.6-1.1 1-1.2.7-.2-.2-1.4-1.8-2.8-3.4l-2.5-3 3.1 2.8c1.7 1.5 3.3 2.5 3.7 2.2zM183 275c0 .5-.4 1-1 1-.5 0-1-.5-1-1 0-.6.5-1 1-1 .6 0 1 .4 1 1zm97.1 4.7c-.8 1.5-1 1.5-1.1.2 0-1.7 1-3.2 1.8-2.5.2.3-.1 1.3-.7 2.3zm-61.6 4.5c2.8 2.8 3.6 4.1 2 2.7-2.9-2.2-8.1-7.9-7.3-7.9.2 0 2.6 2.3 5.3 5.2zm54-.2c.3.5.1 1-.4 1-.6 0-1.1-.5-1.1-1 0-.6.2-1 .4-1 .3 0 .8.4 1.1 1zM154 290.5c0 .2-2.4 1.6-5.2 3.1-2.9 1.4-4.8 2.1-4.3 1.5.6-.6 2.8-2 5-3 4.5-2.3 4.5-2.3 4.5-1.6zm340-.1c0 .3-.4.8-1 1.1-.5.3-1 .1-1-.4 0-.6.5-1.1 1-1.1.6 0 1 .2 1 .4zM236 301c-2 1.3-3.3 1.3-2.5 0 .3-.6 1.4-1 2.3-1 1.5 0 1.5.2.2 1zm56.6 3.2c2.6 3 2.6 3.1.2.9-1.4-1.3-3.1-2-3.7-1.7-.7.4-.8.1-.5-.8.8-2 .5-2.1 4 1.6zM239 303c0 .5-.9 1-2 1s-2-.5-2-1c0-.6.9-1 2-1s2 .4 2 1zm159.5 9.6c-.4 3.1.6 8.3 4.5 22.5 2.7 10.1 6.2 22.9 7.7 28.4 1.4 5.5 3 10.4 3.5 10.9 1 1.3 5.1-8.1 5.2-12.1.1-1.7.4-2.9.8-2.7.4.3 1.9-1.7 3.3-4.3 3.4-6.3 2.5-3.1-2.9 10.3-2.9 7.1-4.1 11.3-3.5 12 1 1.2 18.2.7 18.6-.5.2-.3 3.9-.5 8.4-.3 10.1.4 12.5-.1 14.2-3.4l1.3-2.5 2.7 2.7c2.9 2.9 3.3 4.5 1.6 7.6-1.1 2-1.1 2-3.7-.5l-2.7-2.5-18 1.4c-9.9.7-18.8 1.4-19.9 1.4-1.4 0-1.7.5-1.3 2.1.3 1.2.3 1.8 0 1.5-.4-.3-1.2-.1-1.8.4-.9.7-2 .2-3.9-1.7-2.1-2.1-2.6-3.3-2-5.2.3-1.5.7-3.1.7-3.7.1-2.5-8.7-33.3-9.4-32.8-.4.2-.5-.4-.3-1.3.3-1-1.1-7.2-2.9-13.8-2.4-8.8-3.7-11.9-4.8-11.7-.8.2-1.1 0-.6-.4.4-.4 0-1.8-.9-3.2-1.3-2-1.4-2.9-.3-5.3l1.2-3 2.9 2.8c2.6 2.5 2.9 3.3 2.3 6.9zM41 305.4c0 .2-.7.9-1.5 1.6-1.3 1.1-1.4 1-.9-.4.5-1.4 2.4-2.3 2.4-1.2zm5 2c0 .2-.8 1-1.7 1.7-1.6 1.3-1.7 1.2-.4-.4 1.3-1.6 2.1-2.1 2.1-1.3zm106 13c.9 1.5.3 1.2-1.9-.8-1.7-1.7-3.1-3.1-3.1-3.3 0-.9 3.9 2.3 5 4.1zm-49.5-.4c-.3.5-1.1 1-1.6 1-.6 0-.7-.5-.4-1 .3-.6 1.1-1 1.6-1 .6 0 .7.4.4 1zM86 327c0 .5-.4 1-1 1-.5 0-1-.5-1-1 0-.6.5-1 1-1 .6 0 1 .4 1 1zm205.5 2c-.3.5-1.1 1-1.6 1-.6 0-.7-.5-.4-1 .3-.6 1.1-1 1.6-1 .6 0 .7.4.4 1zm-123.3 7c-.2.8.3 1 1.3.7.8-.4 1.5-.2 1.5.3 0 .6-.6 1-1.2 1-1.9-.1-4.9-2.6-4.1-3.4 1-1 2.8 0 2.5 1.4zm-123.7 4c.3.5.2 1-.4 1-.5 0-1.3-.5-1.6-1-.3-.6-.2-1 .4-1 .5 0 1.3.4 1.6 1zm362.5 0c0 .5-.5 1-1.1 1-.5 0-.7-.5-.4-1 .3-.6.8-1 1.1-1 .2 0 .4.4.4 1zm4 11.3c0 .6-.9 0-2-1.3s-2-2.5-2-2.8c0-.3.9.3 2 1.3s2 2.3 2 2.8zm69 1.2c-.6 1.6-.7 3.1-.3 3.4 1.4 1 4.4 6.1 3.6 6.1-.4 0 .2.6 1.3 1.4 1.6 1.2 3.5 5.2 4.9 10.6.6 2.4 4.4 8.8 5.8 9.8.9.7 1.7 2.1 1.7 3.2 0 1 1.7 3.2 3.7 5 2.6 2.3 3.6 4 3.6 6.1 0 1.7.6 2.9 1.3 2.9.7 0 1.5.4 1.8.9.8 1.3-4.7 10.9-6.6 11.4-1 .3-1.5 1.2-1.2 2.3.3 1.4-.6 2.6-3.1 4.2-2 1.2-3.3 2.7-3.1 3.1 1.2 1.9-7.9 3.1-13.9 1.8-4.6-.9-5.9-.9-6.3.1-.3.9-.9.9-2.4.1-1.1-.6-2.2-.8-2.5-.6-.3.3-2.7-.8-5.4-2.4-2.8-1.6-5.6-2.9-6.4-2.9-.8 0-1.5-.4-1.5-.9 0-2.6 25-69.5 25.7-68.8.2.3-.1 1.7-.7 3.2zm-62.5 4.5c.3.5.1 1-.4 1-.6 0-1.1-.5-1.1-1 0-.6.2-1 .4-1 .3 0 .8.4 1.1 1zm-19.5 6c0 .5-.2 1-.4 1-.3 0-.8-.5-1.1-1-.3-.6-.1-1 .4-1 .6 0 1.1.4 1.1 1zm-181.4 1.5c-1.1.8-2.5 1.5-3 1.5-.6-.1 0-.7 1.4-1.5 3.2-1.9 4-1.8 1.6 0zm-61.6 5.1c0 .4-.6.4-1.4.1-.7-.3-2 0-2.7.6-1.1 1-1.1.9-.1-.4.6-.9.8-1.9.4-2.4-.4-.4.3-.2 1.6.4 1.2.6 2.2 1.4 2.2 1.7zm100.5 1.4c.3.5.1 1-.4 1-.6 0-1.1-.5-1.1-1 0-.6.2-1 .4-1 .3 0 .8.4 1.1 1zm-159.9 1.5c-1.1.8-2.5 1.5-3 1.5-.6-.1 0-.7 1.4-1.5 3.2-1.9 4-1.8 1.6 0zm337.5.2c1.3 1.6 1.2 1.7-.3.4-1.7-1.3-2.2-2.1-1.4-2.1.2 0 1 .8 1.7 1.7zm-287.6.3c-.3.5-1.2 1-1.8 1-.7 0-.6-.4.3-1 1.9-1.2 2.3-1.2 1.5 0zM91 375c0 .5-.4 1-1 1-.5 0-1-.5-1-1 0-.6.5-1 1-1 .6 0 1 .4 1 1zm54.6 7.5c1.4 1.4 2.1 2.5 1.6 2.5s-1.9-1.1-3.2-2.5c-1.3-1.4-2-2.5-1.6-2.5.4 0 1.8 1.1 3.2 2.5zm4.5 5.2c1.3 1.6 1.2 1.7-.3.4-1-.7-1.8-1.5-1.8-1.7 0-.8.8-.3 2.1 1.3zm233.3 2.1c2.8 3 2.5 4-1.6 5.5-1.4.5-1.6 2.1-1.5 11.6.1 6.1-.1 11.1-.4 11.1-.4 0-.9 3.9-1.1 8.7-.5 8.1-.3 9.1 1.9 11.9l2.3 3.1-3 1.3c-2.3 1-3.4 1-4.3.1-.6-.6-1.9-1.1-3-1.1-1 0-1.6-.4-1.2-.9.3-.5.2-1.2-.3-1.5-1.2-.7-29.4-7.9-31.2-7.9-.8 0-1.7-.3-2-.7-.5-.7-23.8-7-25.9-7-.7 0-1 .4-.7.8.2.4-.6.7-1.9.7-2.2-.1-8.5-4.3-8.5-5.7 0-.3 1.4-1.1 3.2-1.7 2.8-1 3.5-.8 5.7 1.3 3 2.8 4 3.1 27.1 9 9.6 2.4 20.9 5.4 25 6.5 4.1 1.2 8.3 2.1 9.4 2.1 1.3 0-2.1-3.9-10.5-12.1-6.8-6.6-10.6-10.7-8.4-9.1 2.2 1.6 4.8 3.9 5.8 5 1.1 1.2 2.6 1.8 3.5 1.5 1.2-.3 1.3-.2.5.4-1.7 1.2 10 12.9 11.8 11.8.8-.5 1-.4.5.3-.4.7-.2 1.2.3 1.2.6 0 1.1-.8 1.1-1.8 0-.9.7-10 1.4-20.2l1.4-18.5-2.4-2.6c-3-3.1-3-3.7-.1-4.9 3.4-1.4 4.1-1.2 7.1 1.8zM155 393c-.8.5-1.9 1-2.5 1-.5 0-.3-.5.5-1s2-1 2.5-1c.6 0 .3.5-.5 1zm277 4c0 .5-.2 1-.4 1-.3 0-.8-.5-1.1-1-.3-.6-.1-1 .4-1 .6 0 1.1.4 1.1 1zm-291 3c0 .5-.4 1-1 1-.5 0-1-.5-1-1 0-.6.5-1 1-1 .6 0 1 .4 1 1zm-15.5 7c.3.5.1 1-.4 1-.6 0-1.1-.5-1.1-1 0-.6.2-1 .4-1 .3 0 .8.4 1.1 1zm-13 5.5c1.8 1.3 5.4 2.9 8.1 3.6 2.7.7 5.7 1.6 6.7 2.1 3.6 1.8 1 1.8-5.8-.1-5.2-1.5-7.4-1.7-9.2-.8-2 .9-2.8.6-5.3-1.8l-3-2.9 2.2-1.3c3-1.6 2.6-1.7 6.3 1.2zm263.4 4.9c-.2.2-1.5.7-2.9 1l-2.5.7 2.5-1.5c2.1-1.2 4.2-1.4 2.9-.2zm-224.8 7c11.3 3.1 17.7 4.4 20 4 2.6-.4 3.9-.1 5.7 1.6 2.8 2.6 2.8 3.4-.1 4.7-1.9.9-2.9.6-5.8-1.8-1.8-1.6-4.1-2.9-4.9-2.9-3.2-.1-33.2-8.8-34.3-10-1-1-.8-1.1.8-.7 1.1.3 9.5 2.6 18.6 5.1zm105.2-4.7c.3.5-.9.9-2.6 1-2.6.1-2.8 0-1.2-.7 2.6-1.1 3.3-1.2 3.8-.3zm3.8 4c1.3 1.6 1.2 1.7-.3.4-1-.7-1.8-1.5-1.8-1.7 0-.8.8-.3 2.1 1.3zm95.9.8c0 .6-5.6 3.5-6.7 3.5-.4-.1.8-.9 2.7-2 3.9-2.2 4-2.2 4-1.5zm-8.5 4.5c-.3.5-1.1 1-1.6 1-.6 0-.7-.5-.4-1 .3-.6 1.1-1 1.6-1 .6 0 .7.4.4 1zm-118.4 9.7c1.3 1.6 1.2 1.7-.3.4-1.7-1.3-2.2-2.1-1.4-2.1.2 0 1 .8 1.7 1.7zm4.4 4.3c1 1.1 1.6 2 1.3 2-.3 0-1.3-.9-2.3-2-1-1.1-1.6-2-1.3-2 .3 0 1.3.9 2.3 2zm204.3 6.7c0 .5.2 1.6.6 2.5.5 1 .5 2.6.2 3.5-.6 1.5-.8 1.5-1.6.3-1-1.6-1.3-.8-1.1 2.5.1 1.3-.1 1.6-.6.8-1.1-1.6-5.3-1.3-5.3.4 0 .7-1.1 1.5-2.5 1.9-2.3.6-3.6 2.4-1.7 2.4.4 0 .8.9.8 2s-.6 2-1.3 2c-.7 0-1.3.4-1.3.8s-2 1.8-4.5 3-4.9 3-5.2 4c-.4.9-1.5 2.3-2.6 3.1-1.8 1.3-1.8 1.5-.3 2.3 1.4.8 1.4 1.1.2 2.4-.8.8-2.6 1.4-4 1.4s-2.6.5-2.6 1.1c0 .5-.4.8-1 .4-.5-.3-.7-1.2-.3-2 .3-.8 0-1.5-.6-1.5s-1.1.4-1.1 1c0 .5-.6.7-1.4.4-.8-.3-1.7-.1-2 .5-.4.6-1.3.8-2 .5-.8-.3-3.2.4-5.5 1.6-3.7 1.8-4.1 1.9-4.1.4 0-1.6-.2-1.6-1.7-.1-1 .8-3.6 1.9-5.8 2.3-2.2.4-5 1.3-6.2 2.1-3.8 2.5-26.3.9-26.3-1.9 0-.4-.3-.7-.7-.6-.5.1-2.1-.4-3.6-1-1.6-.7-3.6-1.2-4.5-1.2-2.4-.1 1-1.5 33.1-13.6 22.9-8.6 61.8-22.9 66.5-24.3.1-.1.1.2 0 .6zM224 456c0 .5-.5 1-1.1 1-.5 0-.7-.5-.4-1 .3-.6.8-1 1.1-1 .2 0 .4.4.4 1zm32.5 9c.3.5.1 1-.4 1-.6 0-1.1-.5-1.1-1 0-.6.2-1 .4-1 .3 0 .8.4 1.1 1zm-81.9 8.3c-1.6 1.2-1.6 1.4.3 3.1 2 1.9 6.7 1.4 5.5-.6-.4-.6-1-.5-1.5.3-.7 1.2-1.1 1.1-2.6-.4-1.1-1-1.3-1.7-.5-1.7.7 0 1.2.5 1.2 1.1 0 .5.5.7 1 .4.8-.5.7-1.2-.2-2.3-1.1-1.5-1.1-1.5.3-.4.9.7 2.5 1 3.5.6 1.5-.5 1.6-.4.4.4-1.2.9-.9 1.3 1.3 2.1 3.5 1.4 4.7 1.4 4.7.1 0-.7.6-.7 1.9-.1 2.3 1.3 10.5 9.1 10 9.5-.8.7-10.8-3.7-10.4-4.5.3-.4-1.1-1.3-3.2-1.8-4.7-1.3-6.3-1.4-4.3-.1.9.6 1 1 .3 1-.6 0-1.4-.4-1.8-1-.3-.5-1.3-.6-2.1-.3-2.1.8-7.9-4.8-6.2-5.9.7-.4 1.9-.8 2.7-.8 1.1 0 1 .3-.3 1.3zM413.5 485c.3.5.1 1-.4 1-.6 0-1.1-.5-1.1-1 0-.6.2-1 .4-1 .3 0 .8.4 1.1 1zm-207 6.2c4.2 4.5 2.8 3.6-3.3-2-.9-.8-2.6-1.1-4.1-.8-2.5.6-2.5.6-.7-.9 1.1-.8 2.3-1.5 2.6-1.5.3 0 2.8 2.4 5.5 5.2zm11.4 11.2c-.2.2-1.5.7-2.9 1l-2.5.7 2.5-1.5c2.1-1.2 4.2-1.4 2.9-.2z"/><path d="M287.1 97.9c-.8 1.4-.5 2.3 1.5 4.2 2.1 2 2.7 2.1 3.4.9 1.4-2.2 1.2-3.5-.8-5.3-2.4-2.2-2.9-2.1-4.1.2zm4.2 1.5c.4 1.1.1 1.3-1.1.9-1.5-.6-1.6-.5-.2 1.3 1.4 1.7 1.4 1.8-.2.6-.9-.8-1.4-2-1.1-2.8.7-1.8 1.9-1.8 2.6 0zM305.2 166.4c-.9 2-.7 2.7 1.4 4.7 2.1 2 2.6 2.1 3.4.9 1.5-2.3 1.2-3.5-1.3-5.8l-2.4-2.2-1.1 2.4zm4.8 2.7c0 .5-.7.5-1.7.2-1.2-.5-1.4-.3-.8.7.5.8.4 1.1-.3.7-.5-.4-.8-1.6-.5-2.7.4-1.6.8-1.8 1.9-.9.8.6 1.4 1.5 1.4 2zM234.5 244.2c.4.9.1 1.9-.6 2.4-.7.4-1.5.2-1.7-.4-.2-.7-.8-1.2-1.3-1.2-1.8 0-.9 1.9 1.9 3.8 2.3 1.7 3.1 1.8 5 .8l2.2-1.2-3-2.9c-1.8-1.7-2.8-2.3-2.5-1.3zm3.5 3.8c0 .5-.7 1-1.6 1-.8 0-1.2-.5-.9-1 .3-.6 1-1 1.6-1 .5 0 .9.4.9 1zM239 282c0 2.3 3.3 6 5.5 6 .8 0 1.5.9 1.5 1.9 0 2.5 1.5 3.4 2.8 1.8.8-.9-.2-2.6-3.8-6.5-2.6-2.8-5-5.2-5.4-5.2-.3 0-.6.9-.6 2zM241.8 305.7c.7.3 1.6.2 1.9-.1.4-.3-.2-.6-1.3-.5-1.1 0-1.4.3-.6.6zM248 311.8c0 .4 1.7 2.4 3.8 4.4l3.7 3.6 2.5-2.6c1.4-1.4 1.6-1.9.6-1.1-1.5 1.1-2 1.1-2.3.1-.3-.6-1.4-1.2-2.5-1.2-1.2 0-1.8-.3-1.5-.7.4-.3-.1-1.2-1.1-1.9-2-1.5-3.2-1.8-3.2-.6zM302.5 317c-.3.5-.1 1 .4 1 .6 0 1.1-.5 1.1-1 0-.6-.2-1-.4-1-.3 0-.8.4-1.1 1zM305.8 318.4c-1.6 1.2-1.6 1.4.7 3.6 2.2 2 2.8 2.2 5.1 1.1l2.7-1.2-2.3-2.4c-2.6-2.8-3.7-3-6.2-1.1zm3.7.5c.7 1.2-1.2 2.4-2.5 1.6-1.1-.7-.4-2.5 1-2.5.5 0 1.1.4 1.5.9zm2 3.1c-.3.5-1.1 1-1.6 1-.6 0-.7-.5-.4-1 .3-.6 1.1-1 1.6-1 .6 0 .7.4.4 1zM164.4 282.8c.2.9.9 1.7 1.7 1.7.8.1 1.3.7 1.1 1.5-.3 1.2-.1 1.2.8.3 1.4-1.3.7-2.9-2-4.3-1.5-.8-1.8-.6-1.6.8zM160.7 282.7c-.2.4 1 1.9 2.7 3.2l3.1 2.5-2.5-3c-1.4-1.6-2.6-3-2.6-3.2-.1-.2-.4 0-.7.5zM173.2 294.9c.7 1.2 1.6 2.1 2 2.1.4 0 .7.8.6 1.7-.4 4.6.1 5.4 3 4.7 1.5-.4 2.8-.8 3-.9.6-.5-3.2-4.5-6.6-7.2-3-2.2-3.2-2.3-2-.4zM176.9 322.1c-.7 4-1.2 5.6-3 8l-2 2.9 4.8-2.1c2.6-1.1 5.1-2.4 5.6-2.8.4-.4-.6-2-2.3-3.6-1.6-1.6-3-2.7-3.1-2.4zM392.5 307.1c-.5 1.5 0 2.8 1.8 4.6l2.4 2.5.7-2.7c.5-1.9.2-3.3-1-4.6-2.2-2.4-3.1-2.4-3.9.2zm4 1c1.1 1.7-.1 2.1-1.5.4-.8-.9-.8-1.5-.2-1.5.6 0 1.4.5 1.7 1.1zM458.6 375.2c-.4 1.6.2 3 1.9 4.7l2.4 2.4.7-2.7c.4-1.9.1-3.3-1.1-4.6-2.3-2.6-3.1-2.5-3.9.2zm3.9.8c.3.5.1 1.8-.4 2.7-1.1 2-1.2 1.9-1.6-1.5-.2-2.3.9-3 2-1.2zM411.5 378c-.5 1.5 0 2.9 1.6 4.6 2.4 2.6 3.9 1.8 3.8-2.1 0-1.8-.1-1.8-1.3.3-1.1 2-1.4 2.1-2.5.9-.7-.9-.8-1.8-.2-2.1.5-.3 1.2 0 1.5.6.2.7.3.2.2-1.1-.4-3.2-2.2-3.8-3.1-1.1zM376.8 388.7c-2.4.6-2.3 1 .9 3.7 2.2 1.9 3.1 2.2 5 1.3l2.3-1-2.2-2.4c-2.1-2.3-2.8-2.5-6-1.6zm3.2 1.8c0 .8.8 1.5 1.7 1.5.9 0 1.3.3 1 .7-.9.9-5.8-1.8-5.1-2.9.8-1.3 2.4-.9 2.4.7zM304.8 418.7c-2.4.6-2.3 1.5.5 4.1 2.1 1.9 2.5 2 4.2.8 1.9-1.4 1.9-1.5.1-3.5-1.1-1.2-2.2-2-2.5-2-.3.1-1.4.3-2.3.6zm2.7 1.3c.3.6-.4 1-1.7 1-1.8 0-2-.2-.8-1 1.9-1.2 1.8-1.2 2.5 0zm2.2 2.6c-.3.3-1.2.4-1.9.1-.8-.3-.5-.6.6-.6 1.1-.1 1.7.2 1.3.5zM376 438.1c1.2.9 1.1 1-.7.6-1.3-.3-2.3-.2-2.3.2 0 1.2 3.5 4.1 5 4.1.9 0 .7-.5-.6-1.5-1.9-1.4-1.8-1.4.4-1.5 1.2 0 2.2.5 2.2 1.2 0 .6.3.8.7.5.9-1-2.7-4.7-4.6-4.7-1.4 0-1.4.2-.1 1.1zM107 412c-1.2.7-1.2 1.2.4 2.9 2.1 2.3 3.3 2.5 5.5 1.2 1.2-.8 1.1-1.3-1-3-2.8-2.3-2.9-2.4-4.9-1.1zm3 1c0 .5-.4 1-1 1-.5 0-1-.5-1-1 0-.6.5-1 1-1 .6 0 1 .4 1 1zm2 2c0 .5-.5 1-1.1 1-.5 0-.7-.5-.4-1 .3-.6.8-1 1.1-1 .2 0 .4.4.4 1zM170.7 429.7c-.4.3.2 1.7 1.4 2.9 1.7 1.9 2.6 2.1 4.1 1.3 1.9-1 1.9-1.2.2-3-1.7-1.9-4.5-2.5-5.7-1.2zm3.8 1.2c-.3.5.3 1.2 1.2 1.4 1.5.4 1.5.5.2.6-.9 0-2.2-.6-2.9-1.4-1-1.2-.9-1.5.4-1.5 1 0 1.5.4 1.1.9zM192.8 481.7c.7.3 1.6.2 1.9-.1.4-.3-.2-.6-1.3-.5-1.1 0-1.4.3-.6.6zM320.2 36.7c-.7 1.3-1 2.4-.7 2.4.3.1 1 .2 1.7.3.7 0 1.5 1.2 1.8 2.6l.6 2.5 1.2-2.2c1.6-2.9 1.5-3.4-.5-3.1-1.1.2-1.9-.6-2.3-2.2l-.6-2.5-1.2 2.2zM267.9 80.7l-2.4 2.8 2.8-2.4c2.5-2.3 3.2-3.1 2.4-3.1-.2 0-1.4 1.2-2.8 2.7zM337.6 102.6c-1 2.5.1 2.9 1.4.5.6-1.2.7-2.1.1-2.1-.5 0-1.2.7-1.5 1.6zM349.8 104.7c.7.3 1.6.2 1.9-.1.4-.3-.2-.6-1.3-.5-1.1 0-1.4.3-.6.6zM356 105c.8.5 2.6 1 3.9 1 3.2 0 2.4-.6-1.9-1.4-2.5-.4-3.1-.3-2 .4zM340.4 107.2c0 2.2 1.2 2.4 2 .2.8-2.1.8-2.1-.7-2.1-.7 0-1.3.9-1.3 1.9zM209.4 111.2l-2.9 3.3 3.3-2.9c3-2.8 3.7-3.6 2.9-3.6-.2 0-1.6 1.5-3.3 3.2zM357.8 108.7c1.2.2 3 .2 4 0 .9-.3-.1-.5-2.3-.4-2.2 0-3 .2-1.7.4zM355 111c0 .5.5 1 1.2 1 .6 0 .4.6-.5 1.3-1.9 1.3-1.8 5 0 6.8.7.7 1.6-.1 2.8-2.8 1-2.1 2.2-4.6 2.7-5.6.7-1.5.4-1.7-2.7-1.7-1.9 0-3.5.4-3.5 1zM344.1 115.6c0 1.1.3 1.4.6.6.3-.7.2-1.6-.1-1.9-.3-.4-.6.2-.5 1.3zM346.7 114.6c-.4.4-.7 1.2-.7 1.8 0 .6.5.4 1-.4.8-1.2 1-1.1 1 .7 0 2.2-1.5 3.9-2.3 2.6-.2-.5-.2-.2 0 .5.1.8.3 2 .3 2.8 0 .9.4 1.3.9.9 1.1-.6 2.6 3.3 1.7 4.2-.3.4-.6-.2-.6-1.2s-.2-1.6-.5-1.3c-.3.3-.1 2.7.6 5.2l1.2 4.7 1.8-3.1c1-1.6 2.5-4.5 3.3-6.4 1.4-3.3 1.4-3.4-2.8-7.5-2.3-2.3-4.5-3.8-4.9-3.5zm3.6 6.7c.4-.3.7.1.7 1 0 1.5-.3 1.5-2 .5-1.1-.7-2-1.7-2-2.2 0-.4.6-.3 1.3.3.8.6 1.7.8 2 .4zM351.5 116c1 1.1 2 2 2.3 2 .3 0-.3-.9-1.3-2s-2-2-2.3-2c-.3 0 .3.9 1.3 2zM252.1 162.4c-1.4 1.6-.6 5.6 1 5.6.6 0 .7-.5.3-1.2-.4-.7-.3-.8.5-.4.6.4.9 1.1.6 1.6-.3.5-.1 1.1.4 1.5.6.3 1.5-.4 2.2-1.6.9-1.8.7-2.5-1.3-4.6-2.2-2.1-2.6-2.2-3.7-.9zm3.9 2.6c0 .5-.7.7-1.5.4-.8-.4-1.2-1-.9-1.5.6-1.1 2.4-.2 2.4 1.1zM355.6 169.6c-1 2.5.1 2.9 1.4.5.6-1.2.7-2.1.1-2.1-.5 0-1.2.7-1.5 1.6zM358.7 172.8c.1.8.3 1.9.3 2.5 0 .7.4.6 1-.3 1.2-1.9 1.3-3.3.1-2.6-.5.4-1.1.3-1.4-.1-.2-.5-.2-.2 0 .5zM406.2 175.7c-.7 1-1 1.2-.6.4.5-.9.3-1.2-.5-.7-.9.6-.9 1.1 0 2.2 1.4 1.8 3.3.4 2.7-2-.3-1.5-.4-1.5-1.6.1zM448.3 175.5c-.3.9-.3 1.8-.1 2.1.3.3.8-.4 1.1-1.6.6-2.3-.1-2.7-1-.5zM255.1 176.6c0 1.1.3 1.4.6.6.3-.7.2-1.6-.1-1.9-.3-.4-.6.2-.5 1.3zM259.1 178.6c0 1.1.3 1.4.6.6.3-.7.2-1.6-.1-1.9-.3-.4-.6.2-.5 1.3zM450.7 179.1c.3 1 .9 1.6 1.4 1.3 1.3-.8 1.1-2.1-.5-2.7-1-.4-1.2 0-.9 1.4zM412 179.7c0 .5.9 1.8 2 2.8 1.1 1 2 1.6 2 1.3 0-.3-.9-1.5-2-2.8-1.1-1.3-2-1.9-2-1.3zM352.5 186c-.7 2.3.1 4 1.8 3.9.9 0 .9-.2 0-.6-1.6-.6-1.7-3-.1-3.5.9-.3.9-.6.1-1.1-.7-.4-1.4.1-1.8 1.3zM249.4 230.1c-.5.8-1.4 2.4-2.1 3.6-1.1 2.2-1 2.3 3 2.2 2.3-.1 3.4-.3 2.4-.6-1.1-.3-1.6-1.1-1.3-2.1.3-.9.2-2.3-.3-3.1-.7-1.1-1-1.1-1.7 0zM270.2 236c-.7 1.1-.8 2-.3 2 .9 0 2.4-3 1.8-3.6-.1-.2-.8.6-1.5 1.6zM323.9 236.4c-1 2.1-1 2.9.1 3.9 1 .9 1.1.9.6 0-.4-.7-.2-2.2.4-3.4.7-1.1.9-2.3.6-2.6-.3-.3-1.1.6-1.7 2.1zM374.5 237.1c-.4.6-.5 1.2-.2 1.5.2.3.7-.2 1-1.1.7-1.7.1-2-.8-.4zM421.5 239.1c-.6 1.9 1.7 5.9 3.5 5.9 1.7 0 1.9-4.5.3-6.2-2.1-2.3-3-2.3-3.8.3zm4.1 1.6c-.7.7-2.6-.7-2.6-1.9 0-.6.6-.6 1.5.2.9.7 1.3 1.5 1.1 1.7zm-1.1 2.1c-.3.3-1.1 0-1.8-.7-.9-1-.8-1.1.6-.5 1 .3 1.5.9 1.2 1.2zM250 241.5c1.8 1.9 3.8 3.1 4.3 2.8.6-.3.7-.2.4.4-.8 1.2 8 9.9 9 8.9.4-.4.2-1-.4-1.4-.7-.4-1.3-2.2-1.5-4-.2-2.3-.7-3.2-2-3.2-.9 0-2.2-.8-2.7-1.8s-2-1.8-3.2-1.9c-1.2-.1-2.7-.9-3.1-1.8-.5-.8-1.6-1.5-2.5-1.5-1.2 0-.8.9 1.7 3.5zM273.4 240.2c0 1 .3 1.8.7 1.8.4 0 .9-.8 1.1-1.8.3-1 0-1.9-.6-1.9-.7 0-1.2.9-1.2 1.9zM326.4 240.6c.1 2.9 1.2 3.1 2.5.5.8-1.5.7-2-.8-2.4-1.5-.3-1.8.1-1.7 1.9zM508.6 240.6c-.8 2.1-.8 2.4.3 2.4.5 0 1.1-.9 1.4-2 .6-2.4-.8-2.7-1.7-.4zM469.3 244.2c-.2 1.8 0 2 .7.8 1.2-1.8 1.3-3 .2-3-.4 0-.9 1-.9 2.2zM357 243.4c0 .2.7.9 1.5 1.6.9.7 1.5.8 1.5.2 0-.5-.7-1.2-1.5-1.6-.8-.3-1.5-.4-1.5-.2zM478.8 243.7c2.3.2 4 .8 3.7 1.4-.4.5.1.9 1.1.9 1.3 0 1.1.4-.7 2-2.1 1.7-2.2 1.9-.6 2 1.7 0 1.7.1.3 1.6-.9.8-1.6 1.8-1.6 2.1 0 .4.3.3.7 0 .3-.4 1.3-.1 2.2.5.9.7 1.3.9.9.4-.3-.4.5-3.2 1.8-6.2l2.4-5.4-7.3.2c-4.8.1-5.8.3-2.9.5zM294.5 245.1c-.4.6-.5 1.2-.2 1.5.2.3.7-.2 1-1.1.7-1.7.1-2-.8-.4zM370.5 248.1c-.4.6-.5 1.2-.2 1.5.2.3.7-.2 1-1.1.7-1.7.1-2-.8-.4zM292.2 249.2c-1.4 1.4-1.6 2.8-.3 2.8.5 0 1.1-.9 1.4-2 .6-2.3.5-2.4-1.1-.8zM265.8 253.5c-1.1 2.4-.6 3 6.5 10.4 4.3 4.3 7.7 7.4 7.7 6.7 0-.6-.9-3.8-2-7.1-1.3-4-1.7-4.8-1.4-2.4.4 2.4.1 3.9-.7 4.4-.8.5-1 .4-.5-.4 1-1.5-.3-5.3-1.5-4.6-.5.4-1.2-.1-1.5-.9-.3-.9-1-1.4-1.4-1.1-1 .6-2.4-2.5-2.1-4.4.2-1.3.1-1.3-1.5 0s-1.6 1.2-.5-.9c.6-1.2.9-2.2.6-2.2-.3 0-1.1 1.1-1.7 2.5zM287.3 254.7c.5.8-.2 1.5-2 1.9-2.5.7-2.5.8-.8 1.5 1.6.6 1.7.8.3.8-.9.1-2 1.1-2.4 2.3-.7 2.2-.7 2.2-1.5.3-1.2-3.2-1 .4.4 5.7l1.3 4.8 2.6-5.3c4.5-8.9 4.9-10.4 3.1-11.9-1.2-.9-1.4-.9-1-.1zM0 294.9c0 7 1.5 8.2 2.3 1.8.2-2.3.6-4.8.8-5.6.2-.8-.4-1.7-1.3-1.9-1.6-.3-1.8.5-1.8 5.7zM0 312.5c0 5.2.4 9.5.8 9.5.5 0 1.8-1.1 3-2.5S6.4 317 7 317c.5 0 1-.8 1-1.8 0-1.4-.2-1.5-1-.2-.9 1.3-1 1.3-1-.1C6 313.3 1.1 303 .4 303c-.2 0-.4 4.3-.4 9.5zM485 304.9v2.6c0 .3.3.6.7.7 1 .4 1.1-4.2.1-4.8-.4-.3-.8.4-.8 1.5zM96.5 316.9c-.3.5-.1 1.2.4 1.5.5.3 1.1-.1 1.5-.9.6-1.6-.9-2.1-1.9-.6zM62.5 339.3c-3.3 1.7-6.2 3.4-6.5 3.7-.3.3-3.3 1.9-6.7 3.6-5.6 2.8-6.5 3-8.3 1.7-1.8-1.2-1.9-1.2-1.3.3.5 1.3.2 1.5-1.8.9-2.4-.7-2.4-.7.4 2.1l2.8 2.9 1.7-2.1c1.4-1.6 2.3-1.9 4.1-1.2 1.3.5 7.7 2.2 14.2 3.8l11.9 3 6.6-3.3 6.6-3.3-7.9-7.7c-4.3-4.2-8.2-7.7-8.8-7.7-.5 0-3.7 1.5-7 3.3zM43 351.4c0 1.1-1.9 1.5-2.5.6-.3-.5.1-1 .9-1 .9 0 1.6.2 1.6.4zM101.3 348.5c0 2.2.2 3 .4 1.7.2-1.2.2-3 0-4-.3-.9-.5.1-.4 2.3zM93.6 348.7l-4.8 2.5 3.3 3.4c3.1 3.2 5 4.3 4.8 2.6-.1-.4 0-.9.1-1.2.1-.3.3-1.2.5-2s.8-3 1.4-4.8c1.1-3.8 1-3.8-5.3-.5zM104.2 348c0 1.4.2 1.9.5 1.2.2-.6.2-1.8 0-2.5-.3-.6-.5-.1-.5 1.3zM108 350.8c2.1 1.8 2.2 2.1.8 2.2-1 0-1.8.5-1.8 1.1 0 .5.5.7 1 .4.6-.3 1.3.2 1.7 1.2.9 2.5 2.3 3.3 5.8 3.3 2.3 0 2.7.3 1.5 1-.9.6-1 1-.3 1 2.9 0 1.9-2.1-3.3-6.6-3-2.7-6.1-5.1-6.7-5.3-.7-.2-.1.6 1.3 1.7zM234 352c-1.2.8-1.1 1.3.9 3.4 2 2.1 2.7 2.3 4.7 1.4l2.4-1.1-2.2-2.4c-2.3-2.5-3.5-2.8-5.8-1.3zm3.5 1c-.3.5-1 1-1.6 1-.5 0-.9-.5-.9-1 0-.6.7-1 1.6-1 .8 0 1.2.4.9 1zm2.5 2c0 .5-.8 1-1.7 1-1.5 0-1.6-.2-.3-1 1.9-1.2 2-1.2 2 0zM83 354.3c-2.5 1.1-4.6 2.4-4.8 2.8-.2.5-1.1.9-2 1-2.4.1-.6.7 11.4 3.9 9.9 2.6 13 3 8.2 1-1.9-.7-1.9-.9-.5-.9 1-.1 1.5-.6 1.2-1.1-.4-.6-1.1-.7-1.7-.4-.6.4-.8.3-.5-.3.3-.5-1.1-2.6-3.1-4.5l-3.7-3.5-4.5 2zM105.2 354.5c0 1.6.2 2.2.5 1.2.2-.9.2-2.3 0-3-.3-.6-.5.1-.5 1.8zM102.2 357.5c0 1.6.2 2.2.5 1.2.2-.9.2-2.3 0-3-.3-.6-.5.1-.5 1.8zM116.3 364.5c0 .9 1.1 2.1 2.5 2.6s2.2 1.5 1.9 2.2c-.3.9 1.5 1.9 5.8 3 8.2 2.2 9.5 2 2.5-.4-3.1-1-4.1-1.6-2.2-1.3 3.4.6 4.2-.5 1.7-2.6-.8-.7-1.5-.9-1.5-.5s-.8-.3-1.8-1.5c-2.3-2.8-8.9-3.9-8.9-1.5zm3.2.5c.3.5-.1 1-1 1s-1.3-.5-1-1c.3-.6.8-1 1-1 .2 0 .7.4 1 1zM105.5 365.9c.9 1.6-1.5 2.3-3.3 1-.9-.8-.6-.1.7 1.4 2.8 3.1 3.3 3.3 2.4 1-.5-1.3-.2-1.5 1.6-1 2.2.5 2.2.5.5-1.4-1.8-2-2.9-2.6-1.9-1zM116 369c.8.5 2 1 2.5 1 .6 0 .3-.5-.5-1s-1.9-1-2.5-1c-.5 0-.3.5.5 1zM186 379.4c0 .2.7.7 1.6 1 .8.3 1.2.2.9-.4-.6-1-2.5-1.4-2.5-.6zM0 459.4V537h170.9l-2.9-5.6c-1.6-3-2.9-5.8-2.8-6.2.1-.4-.8-2.6-1.9-5-1.2-2.4-2-4.9-1.7-5.6.3-.7-.2-1.9-1.1-2.6-.8-.7-1.5-2.1-1.5-3.1 0-1.1-.4-1.9-1-1.9-.5 0-1-.9-1-2s-.4-2-.9-2-.7-.9-.4-2c.3-1.1-.1-2.8-.8-3.7-1.2-1.4-1.2-1.6 0-.8 1 .5 1.2.4.7-.3-.4-.7-1.3-1.2-2-1.2s-2.1-.9-3.1-2-2.4-2-3.1-2c-.8 0-1.1-.7-.8-1.7.4-1.2.3-1.4-.3-.6-1.1 1.5-5.3.6-5.3-1.2 0-.7-1.5-1.7-3.2-2.2-1.8-.5-3.2-1.5-3-2.1.1-.7-.5-1.2-1.3-1.2s-1.5-.3-1.5-.8c0-.4-2-.6-4.5-.4-3 .3-4.5 0-4.5-.8 0-.7-.7-1-1.6-.6-2 .8-5.4-1.1-5.4-3 0-.8-.3-1.3-.7-1.1-1 .6-3.4-1.9-2.6-2.7.4-.3-.1-.6-1.1-.6-.9 0-1.5-.4-1.2-.9.3-.5-.1-1.4-.9-2.1-.8-.7-1.5-1.7-1.5-2.3 0-.5-.8-1.7-1.8-2.6-1.1-.9-2.2-2.8-2.6-4.4-.3-1.5-1.2-2.7-2-2.7-.7 0-1.9-.7-2.6-1.5-.7-.8-1.6-1.2-2.1-.9-.5.3-.9-.2-.9-1 0-1-1.8-1.9-6-2.7l-6-1.2.4-7.6c.2-4.3 0-8.1-.6-8.9-.6-.6-.7-1.2-.3-1.2.4 0 .2-.7-.5-1.5-.7-.9-.8-1.5-.2-1.5 2.5 0 1.7-3.1-1.9-7.1-2.1-2.4-3.9-4.7-3.9-5.2 0-.4-.5-.7-1.2-.7-.6 0-2.6-1.8-4.5-4s-4.3-4-5.3-4-2.6-.7-3.4-1.6c-1.3-1.2-3.8-1.5-12.9-1.4-15.7.1-15.7.1-15.7 1 0 .4-1.4 1-3 1.2-2.3.4-3 .1-2.8-1.1.2-.9-.3-1.5-.9-1.4-.7.2-1.3-.2-1.3-.8 0-.5-.5-.7-1.2-.3-.6.4-.8.3-.5-.3.7-1.1-.9-2.9-3.2-3.5-2-.5-6.6-5.1-6.3-6.3.2-.6 0-.7-.3-.3-.4.4-2.1-.6-3.7-2.2-1.6-1.7-3.6-3-4.4-3-.8 0-1.4-.5-1.4-1 0-.6-1-1-2.2-1-1.6 0-1.9-.3-1-.9 1-.6 1-1-.3-2.1S0 389.4 0 459.4zM170.2 383.1c.2.8-.4 1.3-1.4 1.3-2.2-.2-1.4 1.2 1.5 2.7 1.2.7 1.9.8 1.5.4-.4-.5-.3-1.4.2-2 .7-.9.5-1.6-.5-2.5-1.3-1.1-1.6-1.1-1.3.1zM185 396.4c0 .2.8 1 1.8 1.7 1.5 1.3 1.6 1.2.3-.4s-2.1-2.1-2.1-1.3zM239 402.4c0 .2.7.7 1.6 1 .8.3 1.2.2.9-.4-.6-1-2.5-1.4-2.5-.6zM239.1 448c-.8.4-2.1.6-3 .3-.9-.3-.5.4.9 1.6 1.4 1.1 3 2.1 3.5 2.1.6 0 .4-.4-.4-.9-1-.7-1-1-.1-1.6.7-.4 1.6-.2 2.1.6.4.7 1 1.1 1.4.8 1.1-1.1-3-3.8-4.4-2.9zM238.2 475.5c0 1.6.2 2.2.5 1.2.2-.9.2-2.3 0-3-.3-.6-.5.1-.5 1.8zM255 496c.8.5 2 1 2.5 1 .6 0 .3-.5-.5-1s-1.9-1-2.5-1c-.5 0-.3.5.5 1zM218 498.1c0 .5.4.8.9.5.5-.4 1.2 0 1.4.6.3.8.6.6.6-.5.1-.9-.6-1.7-1.4-1.7-.8 0-1.5.5-1.5 1.1zM260 500.5c1.4.8 1.8 1.5 1 1.4-2.9-.3-4.1.1-3.5 1.1.3.6-.4 1-1.7 1-2 0-2.1.2-.7 1.5 1.3 1.4 2 1.4 6.4 0 6.3-1.9 6.9-1.3 1 1l-4.6 1.7 2.3 2.6 2.3 2.5-3.2-2.3c-1.7-1.2-3.6-2-4.1-1.6-.5.3-.9-.2-.8-1.2 0-1-.6-1.6-1.6-1.6-1 .1-1.6-.2-1.3-.6.3-.5.1-1.2-.5-1.5-.6-.4-.9-.1-.8.7.2.8-.4 1.2-1.5 1-1.9-.3-4.6 1.9-4.8 4-.1.7-.5.2-.9-1.2-.6-1.8-.8-.4-.9 4.7l-.1 7.3 7.8-2.9c4.2-1.6 12.7-4.7 18.8-7 6.1-2.2 12.2-4.1 13.5-4.2 4.3-.1-4.1-3.1-9.3-3.3-2.5 0-4.2-.4-3.6-.7.5-.3-1-1.1-3.5-1.7-2.4-.7-5.3-1.4-6.3-1.8-1.2-.3-.9.1.6 1.1zm-7.1 8.9c-1 1.1-9.9 4.5-9.9 3.8 0-.8 6.8-4 8.9-4.1.8-.1 1.2.1 1 .3zM235.6 508.3c.3 1 .9 1.5 1.2 1.2.3-.3 0-1.1-.7-1.8-1-.9-1.1-.8-.5.6z"/></svg>